<?xml version="1.0" encoding="UTF-8" standalone="no"?>
<!DOCTYPE svg PUBLIC "-//W3C//DTD SVG 1.1//EN"
 "http://www.w3.org/Graphics/SVG/1.1/DTD/svg11.dtd">
<!-- Generated by graphviz version 2.43.0 (0)
 -->
<!-- Title: TieRobotSystemArchitecture Pages: 1 -->
<svg width="3728pt" height="770pt"
 viewBox="0.00 0.00 3728.40 770.40" xmlns="http://www.w3.org/2000/svg" xmlns:xlink="http://www.w3.org/1999/xlink">
<g id="graph0" class="graph" transform="scale(1 1) rotate(0) translate(25.2 745.2)">
<title>TieRobotSystemArchitecture</title>
<polygon fill="#ffffff" stroke="transparent" points="-25.2,25.2 -25.2,-745.2 3703.2,-745.2 3703.2,25.2 -25.2,25.2"/>
<text text-anchor="middle" x="1839" y="-696.8" font-family="Noto Sans CJK SC" font-size="24.00" fill="#111827">simple_lashingrobot_ws 工程设计总图</text>
<text text-anchor="middle" x="1839" y="-670.8" font-family="Noto Sans CJK SC" font-size="24.00" fill="#111827">驱动层保留原子动作，控制/算法层编排执行链</text>
<g id="clust1" class="cluster">
<title>cluster_ui</title>
<path fill="#ffffff" stroke="#dbeafe" stroke-width="1.6" stroke-dasharray="5,2" d="M760,-8C760,-8 980,-8 980,-8 986,-8 992,-14 992,-20 992,-20 992,-405 992,-405 992,-411 986,-417 980,-417 980,-417 760,-417 760,-417 754,-417 748,-411 748,-405 748,-405 748,-20 748,-20 748,-14 754,-8 760,-8"/>
<text text-anchor="middle" x="870" y="-393.8" font-family="Noto Sans CJK SC" font-size="24.00" fill="#111827">交互与静态站点</text>
</g>
<g id="clust2" class="cluster">
<title>cluster_bridge</title>
<path fill="#ffffff" stroke="#fed7aa" stroke-width="1.6" stroke-dasharray="5,2" d="M20,-293C20,-293 728,-293 728,-293 734,-293 740,-299 740,-305 740,-305 740,-564 740,-564 740,-570 734,-576 728,-576 728,-576 20,-576 20,-576 14,-576 8,-570 8,-564 8,-564 8,-305 8,-305 8,-299 14,-293 20,-293"/>
<text text-anchor="middle" x="374" y="-552.8" font-family="Noto Sans CJK SC" font-size="24.00" fill="#111827">常驻桥接层 rosbridge_stack.launch</text>
</g>
<g id="clust3" class="cluster">
<title>cluster_algorithm</title>
<path fill="#ffffff" stroke="#bbf7d0" stroke-width="1.6" stroke-dasharray="5,2" d="M1203,-120C1203,-120 1976,-120 1976,-120 1982,-120 1988,-126 1988,-132 1988,-132 1988,-564 1988,-564 1988,-570 1982,-576 1976,-576 1976,-576 1203,-576 1203,-576 1197,-576 1191,-570 1191,-564 1191,-564 1191,-132 1191,-132 1191,-126 1197,-120 1203,-120"/>
<text text-anchor="middle" x="1589.5" y="-552.8" font-family="Noto Sans CJK SC" font-size="24.00" fill="#111827">算法与运动控制层 algorithm_stack.launch</text>
</g>
<g id="clust4" class="cluster">
<title>cluster_driver</title>
<path fill="#ffffff" stroke="#e9d5ff" stroke-width="1.6" stroke-dasharray="5,2" d="M2794,-120C2794,-120 3389,-120 3389,-120 3395,-120 3401,-126 3401,-132 3401,-132 3401,-405 3401,-405 3401,-411 3395,-417 3389,-417 3389,-417 2794,-417 2794,-417 2788,-417 2782,-411 2782,-405 2782,-405 2782,-132 2782,-132 2782,-126 2788,-120 2794,-120"/>
<text text-anchor="middle" x="3091.5" y="-393.8" font-family="Noto Sans CJK SC" font-size="24.00" fill="#111827">驱动层：原子动作与硬件协议</text>
</g>
<g id="clust5" class="cluster">
<title>cluster_hardware</title>
<path fill="#ffffff" stroke="#e5e7eb" stroke-width="1.6" stroke-dasharray="5,2" d="M2024,-106C2024,-106 2762,-106 2762,-106 2768,-106 2774,-112 2774,-118 2774,-118 2774,-246 2774,-246 2774,-252 2768,-258 2762,-258 2762,-258 2024,-258 2024,-258 2018,-258 2012,-252 2012,-246 2012,-246 2012,-118 2012,-118 2012,-112 2018,-106 2024,-106"/>
<text text-anchor="middle" x="2393" y="-234.8" font-family="Noto Sans CJK SC" font-size="24.00" fill="#111827">硬件与运行数据</text>
</g>
<!-- frontend -->
<g id="node1" class="node">
<title>frontend</title>
<path fill="#eff6ff" stroke="#bfdbfe" d="M958,-341C958,-341 770,-341 770,-341 764,-341 758,-335 758,-329 758,-329 758,-313 758,-313 758,-307 764,-301 770,-301 770,-301 958,-301 958,-301 964,-301 970,-307 970,-313 970,-313 970,-329 970,-329 970,-335 964,-341 958,-341"/>
<text text-anchor="middle" x="864" y="-324.6" font-family="Noto Sans CJK SC" font-size="13.00" fill="#111827">Tie Robot 前端</text>
<text text-anchor="middle" x="864" y="-310.6" font-family="Noto Sans CJK SC" font-size="13.00" fill="#111827">3D Scene / Topic Layers / 控制台</text>
</g>
<!-- help -->
<g id="node2" class="node">
<title>help</title>
<path fill="#f0f9ff" stroke="#bae6fd" d="M940.5,-168C940.5,-168 795.5,-168 795.5,-168 789.5,-168 783.5,-162 783.5,-156 783.5,-156 783.5,-140 783.5,-140 783.5,-134 789.5,-128 795.5,-128 795.5,-128 940.5,-128 940.5,-128 946.5,-128 952.5,-134 952.5,-140 952.5,-140 952.5,-156 952.5,-156 952.5,-162 946.5,-168 940.5,-168"/>
<text text-anchor="middle" x="868" y="-151.6" font-family="Noto Sans CJK SC" font-size="13.00" fill="#111827">VitePress 帮助站</text>
<text text-anchor="middle" x="868" y="-137.6" font-family="Noto Sans CJK SC" font-size="13.00" fill="#111827">设计 / 架构图 / ROS graph</text>
</g>
<!-- frontend&#45;&gt;help -->
<g id="edge2" class="edge">
<title>frontend&#45;&gt;help</title>
<path fill="none" stroke="#2563eb" d="M868,-300.82C868,-300.82 868,-176.06 868,-176.06"/>
<polygon fill="#2563eb" stroke="#2563eb" points="870.8,-176.06 868,-168.06 865.2,-176.06 870.8,-176.06"/>
<text text-anchor="middle" x="888" y="-269.2" font-family="Noto Sans CJK SC" font-size="11.00" fill="#374151">帮助入口</text>
</g>
<!-- rosbridge -->
<g id="node4" class="node">
<title>rosbridge</title>
<path fill="#fff7ed" stroke="#fdba74" d="M224,-500C224,-500 28,-500 28,-500 22,-500 16,-494 16,-488 16,-488 16,-472 16,-472 16,-466 22,-460 28,-460 28,-460 224,-460 224,-460 230,-460 236,-466 236,-472 236,-472 236,-488 236,-488 236,-494 230,-500 224,-500"/>
<text text-anchor="middle" x="126" y="-483.6" font-family="Noto Sans CJK SC" font-size="13.00" fill="#111827">rosbridge_websocket</text>
<text text-anchor="middle" x="126" y="-469.6" font-family="Noto Sans CJK SC" font-size="13.00" fill="#111827">WebSocket &lt;&#45;&gt; ROS topic/service</text>
</g>
<!-- frontend&#45;&gt;rosbridge -->
<g id="edge1" class="edge">
<title>frontend&#45;&gt;rosbridge</title>
<path fill="none" stroke="#2563eb" d="M864,-341.21C864,-354.71 864,-370 864,-370 864,-370 218.67,-370 218.67,-370 218.67,-370 218.67,-451.82 218.67,-451.82"/>
<polygon fill="#2563eb" stroke="#2563eb" points="215.87,-451.82 218.67,-459.82 221.47,-451.82 215.87,-451.82"/>
<text text-anchor="middle" x="387.5" y="-428.2" font-family="Noto Sans CJK SC" font-size="11.00" fill="#374151">WebSocket topic/service/action</text>
</g>
<!-- static_server -->
<g id="node3" class="node">
<title>static_server</title>
<path fill="#f8fafc" stroke="#d1d5db" d="M972,-56C972,-56 768,-56 768,-56 762,-56 756,-50 756,-44 756,-44 756,-28 756,-28 756,-22 762,-16 768,-16 768,-16 972,-16 972,-16 978,-16 984,-22 984,-28 984,-28 984,-44 984,-44 984,-50 978,-56 972,-56"/>
<text text-anchor="middle" x="870" y="-39.6" font-family="Noto Sans CJK SC" font-size="13.00" fill="#111827">workspace_picker_web_server.py</text>
<text text-anchor="middle" x="870" y="-25.6" font-family="Noto Sans CJK SC" font-size="13.00" fill="#111827">HTTP 静态服务 + 本机系统接口</text>
</g>
<!-- help&#45;&gt;static_server -->
<g id="edge3" class="edge">
<title>help&#45;&gt;static_server</title>
<path fill="none" stroke="#2563eb" d="M868,-127.98C868,-127.98 868,-64.23 868,-64.23"/>
<polygon fill="#2563eb" stroke="#2563eb" points="870.8,-64.23 868,-56.23 865.2,-64.23 870.8,-64.23"/>
<text text-anchor="middle" x="908.5" y="-82.2" font-family="Noto Sans CJK SC" font-size="11.00" fill="#374151">/help/ 静态托管</text>
</g>
<!-- web_bridge -->
<g id="node6" class="node">
<title>web_bridge</title>
<path fill="#fff7ed" stroke="#fdba74" d="M422.5,-341C422.5,-341 267.5,-341 267.5,-341 261.5,-341 255.5,-335 255.5,-329 255.5,-329 255.5,-313 255.5,-313 255.5,-307 261.5,-301 267.5,-301 267.5,-301 422.5,-301 422.5,-301 428.5,-301 434.5,-307 434.5,-313 434.5,-313 434.5,-329 434.5,-329 434.5,-335 428.5,-341 422.5,-341"/>
<text text-anchor="middle" x="345" y="-324.6" font-family="Noto Sans CJK SC" font-size="13.00" fill="#111827">web_action_bridge_node</text>
<text text-anchor="middle" x="345" y="-310.6" font-family="Noto Sans CJK SC" font-size="13.00" fill="#111827">Web Action &#45;&gt; 后端服务</text>
</g>
<!-- static_server&#45;&gt;web_bridge -->
<g id="edge4" class="edge">
<title>static_server&#45;&gt;web_bridge</title>
<path fill="none" stroke="#dc2626" stroke-dasharray="5,2" d="M755.73,-36C589.41,-36 300.25,-36 300.25,-36 300.25,-36 300.25,-292.96 300.25,-292.96"/>
<polygon fill="#dc2626" stroke="#dc2626" points="297.45,-292.96 300.25,-300.96 303.05,-292.96 297.45,-292.96"/>
<text text-anchor="middle" x="518" y="-145.2" font-family="Noto Sans CJK SC" font-size="11.00" fill="#374151">systemctl start/stop/restart</text>
</g>
<!-- rosapi -->
<g id="node5" class="node">
<title>rosapi</title>
<path fill="#fff7ed" stroke="#fdba74" d="M172,-341C172,-341 28,-341 28,-341 22,-341 16,-335 16,-329 16,-329 16,-313 16,-313 16,-307 22,-301 28,-301 28,-301 172,-301 172,-301 178,-301 184,-307 184,-313 184,-313 184,-329 184,-329 184,-335 178,-341 172,-341"/>
<text text-anchor="middle" x="100" y="-324.6" font-family="Noto Sans CJK SC" font-size="13.00" fill="#111827">rosapi</text>
<text text-anchor="middle" x="100" y="-310.6" font-family="Noto Sans CJK SC" font-size="13.00" fill="#111827">运行时 topic/service 查询</text>
</g>
<!-- rosbridge&#45;&gt;rosapi -->
<g id="edge5" class="edge">
<title>rosbridge&#45;&gt;rosapi</title>
<path fill="none" stroke="#6b7280" d="M100,-459.86C100,-459.86 100,-349.22 100,-349.22"/>
<polygon fill="#6b7280" stroke="#6b7280" points="102.8,-349.22 100,-341.22 97.2,-349.22 102.8,-349.22"/>
<text text-anchor="middle" x="84.5" y="-428.2" font-family="Noto Sans CJK SC" font-size="11.00" fill="#374151">运行时发现</text>
</g>
<!-- rosbridge&#45;&gt;web_bridge -->
<g id="edge6" class="edge">
<title>rosbridge&#45;&gt;web_bridge</title>
<path fill="none" stroke="#2563eb" d="M236.11,-480C253.43,-480 265.75,-480 265.75,-480 265.75,-480 265.75,-349.14 265.75,-349.14"/>
<polygon fill="#2563eb" stroke="#2563eb" points="268.55,-349.14 265.75,-341.14 262.95,-349.14 268.55,-349.14"/>
<text text-anchor="middle" x="209.5" y="-428.2" font-family="Noto Sans CJK SC" font-size="11.00" fill="#374151">/web/cabin/* Action</text>
</g>
<!-- pointai -->
<g id="node9" class="node">
<title>pointai</title>
<path fill="#f0fdf4" stroke="#86efac" d="M1434.5,-500C1434.5,-500 1229.5,-500 1229.5,-500 1223.5,-500 1217.5,-494 1217.5,-488 1217.5,-488 1217.5,-472 1217.5,-472 1217.5,-466 1223.5,-460 1229.5,-460 1229.5,-460 1434.5,-460 1434.5,-460 1440.5,-460 1446.5,-466 1446.5,-472 1446.5,-472 1446.5,-488 1446.5,-488 1446.5,-494 1440.5,-500 1434.5,-500"/>
<text text-anchor="middle" x="1332" y="-483.6" font-family="Noto Sans CJK SC" font-size="13.00" fill="#111827">pointAINode</text>
<text text-anchor="middle" x="1332" y="-469.6" font-family="Noto Sans CJK SC" font-size="13.00" fill="#111827">PR&#45;FPRG 视觉识别 / process_image</text>
</g>
<!-- rosbridge&#45;&gt;pointai -->
<g id="edge7" class="edge">
<title>rosbridge&#45;&gt;pointai</title>
<path fill="none" stroke="#2563eb" d="M201.33,-459.81C201.33,-436.11 201.33,-400 201.33,-400 201.33,-400 1235.67,-400 1235.67,-400 1235.67,-400 1235.67,-451.81 1235.67,-451.81"/>
<polygon fill="#2563eb" stroke="#2563eb" points="1232.87,-451.81 1235.67,-459.81 1238.47,-451.81 1232.87,-451.81"/>
<text text-anchor="middle" x="717" y="-587.2" font-family="Noto Sans CJK SC" font-size="11.00" fill="#374151">/web/pointAI/* 话题</text>
</g>
<!-- cabin_motion -->
<g id="node12" class="node">
<title>cabin_motion</title>
<path fill="#f0fdf4" stroke="#86efac" d="M1734.5,-168C1734.5,-168 1583.5,-168 1583.5,-168 1577.5,-168 1571.5,-162 1571.5,-156 1571.5,-156 1571.5,-140 1571.5,-140 1571.5,-134 1577.5,-128 1583.5,-128 1583.5,-128 1734.5,-128 1734.5,-128 1740.5,-128 1746.5,-134 1746.5,-140 1746.5,-140 1746.5,-156 1746.5,-156 1746.5,-162 1740.5,-168 1734.5,-168"/>
<text text-anchor="middle" x="1659" y="-151.6" font-family="Noto Sans CJK SC" font-size="13.00" fill="#111827">cabin_motion_controller</text>
<text text-anchor="middle" x="1659" y="-137.6" font-family="Noto Sans CJK SC" font-size="13.00" fill="#111827">索驱运动控制</text>
</g>
<!-- web_bridge&#45;&gt;cabin_motion -->
<g id="edge9" class="edge">
<title>web_bridge&#45;&gt;cabin_motion</title>
<path fill="none" stroke="#dc2626" stroke-dasharray="5,2" d="M345,-300.91C345,-260.23 345,-172 345,-172 345,-172 1615.25,-172 1615.25,-172 1615.25,-172 1615.25,-171.62 1615.25,-171.62"/>
<polygon fill="#dc2626" stroke="#dc2626" points="1618.05,-176.25 1615.25,-168.25 1612.45,-176.25 1618.05,-176.25"/>
<text text-anchor="middle" x="626.5" y="-269.2" font-family="Noto Sans CJK SC" font-size="11.00" fill="#374151">/web/system/* 间接启停</text>
</g>
<!-- executor -->
<g id="node14" class="node">
<title>executor</title>
<path fill="#dcfce7" stroke="#22c55e" d="M1416,-341C1416,-341 1284,-341 1284,-341 1278,-341 1272,-335 1272,-329 1272,-329 1272,-313 1272,-313 1272,-307 1278,-301 1284,-301 1284,-301 1416,-301 1416,-301 1422,-301 1428,-307 1428,-313 1428,-313 1428,-329 1428,-329 1428,-335 1422,-341 1416,-341"/>
<text text-anchor="middle" x="1350" y="-324.6" font-family="Noto Sans CJK SC" font-size="13.00" fill="#111827">bind_task_executor</text>
<text text-anchor="middle" x="1350" y="-310.6" font-family="Noto Sans CJK SC" font-size="13.00" fill="#111827">扫描 / 账本 / 执行链编排</text>
</g>
<!-- web_bridge&#45;&gt;executor -->
<g id="edge8" class="edge">
<title>web_bridge&#45;&gt;executor</title>
<path fill="none" stroke="#dc2626" d="M389.75,-300.58C389.75,-273.48 389.75,-229 389.75,-229 389.75,-229 1292.83,-229 1292.83,-229 1292.83,-229 1292.83,-292.58 1292.83,-292.58"/>
<polygon fill="#dc2626" stroke="#dc2626" points="1290.03,-292.58 1292.83,-300.58 1295.63,-292.58 1290.03,-292.58"/>
<text text-anchor="middle" x="584" y="-428.2" font-family="Noto Sans CJK SC" font-size="11.00" fill="#374151">/cabin/start_* / run_bind_path_direct_test</text>
</g>
<!-- log_mux -->
<g id="node7" class="node">
<title>log_mux</title>
<path fill="#f8fafc" stroke="#d1d5db" d="M472,-500C472,-500 288,-500 288,-500 282,-500 276,-494 276,-488 276,-488 276,-472 276,-472 276,-466 282,-460 288,-460 288,-460 472,-460 472,-460 478,-460 484,-466 484,-472 484,-472 484,-488 484,-488 484,-494 478,-500 472,-500"/>
<text text-anchor="middle" x="380" y="-483.6" font-family="Noto Sans CJK SC" font-size="13.00" fill="#111827">system_log_mux.py</text>
<text text-anchor="middle" x="380" y="-469.6" font-family="Noto Sans CJK SC" font-size="13.00" fill="#111827">/rosout_agg &#45;&gt; /system_log/all</text>
</g>
<!-- log_mux&#45;&gt;frontend -->
<g id="edge10" class="edge">
<title>log_mux&#45;&gt;frontend</title>
<path fill="none" stroke="#6b7280" d="M459.25,-459.98C459.25,-415.83 459.25,-314 459.25,-314 459.25,-314 749.92,-314 749.92,-314"/>
<polygon fill="#6b7280" stroke="#6b7280" points="749.92,-316.8 757.92,-314 749.92,-311.2 749.92,-316.8"/>
<text text-anchor="middle" x="779" y="-428.2" font-family="Noto Sans CJK SC" font-size="11.00" fill="#374151">/system_log/all</text>
</g>
<!-- tf_stack -->
<g id="node8" class="node">
<title>tf_stack</title>
<path fill="#f8fafc" stroke="#d1d5db" d="M719.5,-500C719.5,-500 536.5,-500 536.5,-500 530.5,-500 524.5,-494 524.5,-488 524.5,-488 524.5,-472 524.5,-472 524.5,-466 530.5,-460 536.5,-460 536.5,-460 719.5,-460 719.5,-460 725.5,-460 731.5,-466 731.5,-472 731.5,-472 731.5,-488 731.5,-488 731.5,-494 725.5,-500 719.5,-500"/>
<text text-anchor="middle" x="628" y="-483.6" font-family="Noto Sans CJK SC" font-size="13.00" fill="#111827">TF 常驻层</text>
<text text-anchor="middle" x="628" y="-469.6" font-family="Noto Sans CJK SC" font-size="13.00" fill="#111827">robot_tf / gripper_tf / tf2_web</text>
</g>
<!-- tf_stack&#45;&gt;frontend -->
<g id="edge11" class="edge">
<title>tf_stack&#45;&gt;frontend</title>
<path fill="none" stroke="#9333ea" d="M662.5,-460C662.5,-418.53 662.5,-327 662.5,-327 662.5,-327 749.94,-327 749.94,-327"/>
<polygon fill="#9333ea" stroke="#9333ea" points="749.94,-329.8 757.94,-327 749.94,-324.2 749.94,-329.8"/>
<text text-anchor="middle" x="934" y="-428.2" font-family="Noto Sans CJK SC" font-size="11.00" fill="#374151">/tf via tf2_web_republisher</text>
</g>
<!-- pointai&#45;&gt;frontend -->
<g id="edge16" class="edge">
<title>pointai&#45;&gt;frontend</title>
<path fill="none" stroke="#16a34a" d="M1253.83,-460C1253.83,-418.53 1253.83,-327 1253.83,-327 1253.83,-327 978.01,-327 978.01,-327"/>
<polygon fill="#16a34a" stroke="#16a34a" points="978.01,-324.2 970.01,-327 978.01,-329.8 978.01,-324.2"/>
<text text-anchor="middle" x="1266.5" y="-428.2" font-family="Noto Sans CJK SC" font-size="11.00" fill="#374151">结果图 / 视觉点</text>
</g>
<!-- pointai&#45;&gt;executor -->
<g id="edge15" class="edge">
<title>pointai&#45;&gt;executor</title>
<path fill="none" stroke="#16a34a" d="M1350,-459.86C1350,-459.86 1350,-349.22 1350,-349.22"/>
<polygon fill="#16a34a" stroke="#16a34a" points="1352.8,-349.22 1350,-341.22 1347.2,-349.22 1352.8,-349.22"/>
<text text-anchor="middle" x="1397" y="-428.2" font-family="Noto Sans CJK SC" font-size="11.00" fill="#374151">/coordinate_point</text>
</g>
<!-- bind_map -->
<g id="node10" class="node">
<title>bind_map</title>
<path fill="#f0fdf4" stroke="#86efac" d="M1322.5,-168C1322.5,-168 1211.5,-168 1211.5,-168 1205.5,-168 1199.5,-162 1199.5,-156 1199.5,-156 1199.5,-140 1199.5,-140 1199.5,-134 1205.5,-128 1211.5,-128 1211.5,-128 1322.5,-128 1322.5,-128 1328.5,-128 1334.5,-134 1334.5,-140 1334.5,-140 1334.5,-156 1334.5,-156 1334.5,-162 1328.5,-168 1322.5,-168"/>
<text text-anchor="middle" x="1267" y="-151.6" font-family="Noto Sans CJK SC" font-size="13.00" fill="#111827">bind_map_builder</text>
<text text-anchor="middle" x="1267" y="-137.6" font-family="Noto Sans CJK SC" font-size="13.00" fill="#111827">全局绑扎点构图</text>
</g>
<!-- planner -->
<g id="node11" class="node">
<title>planner</title>
<path fill="#f0fdf4" stroke="#86efac" d="M1519,-168C1519,-168 1387,-168 1387,-168 1381,-168 1375,-162 1375,-156 1375,-156 1375,-140 1375,-140 1375,-134 1381,-128 1387,-128 1387,-128 1519,-128 1519,-128 1525,-128 1531,-134 1531,-140 1531,-140 1531,-156 1531,-156 1531,-162 1525,-168 1519,-168"/>
<text text-anchor="middle" x="1453" y="-151.6" font-family="Noto Sans CJK SC" font-size="13.00" fill="#111827">global_bind_planner</text>
<text text-anchor="middle" x="1453" y="-137.6" font-family="Noto Sans CJK SC" font-size="13.00" fill="#111827">pseudo_slam 路径规划</text>
</g>
<!-- cabin_driver -->
<g id="node15" class="node">
<title>cabin_driver</title>
<path fill="#faf5ff" stroke="#d8b4fe" d="M3000.5,-341C3000.5,-341 2801.5,-341 2801.5,-341 2795.5,-341 2789.5,-335 2789.5,-329 2789.5,-329 2789.5,-313 2789.5,-313 2789.5,-307 2795.5,-301 2801.5,-301 2801.5,-301 3000.5,-301 3000.5,-301 3006.5,-301 3012.5,-307 3012.5,-313 3012.5,-313 3012.5,-329 3012.5,-329 3012.5,-335 3006.5,-341 3000.5,-341"/>
<text text-anchor="middle" x="2901" y="-324.6" font-family="Noto Sans CJK SC" font-size="13.00" fill="#111827">suoqu_driver_node</text>
<text text-anchor="middle" x="2901" y="-310.6" font-family="Noto Sans CJK SC" font-size="13.00" fill="#111827">TCP 原子指令：move / stop / state</text>
</g>
<!-- cabin_motion&#45;&gt;cabin_driver -->
<g id="edge22" class="edge">
<title>cabin_motion&#45;&gt;cabin_driver</title>
<path fill="none" stroke="#dc2626" d="M1702.75,-168.15C1702.75,-216.1 1702.75,-333 1702.75,-333 1702.75,-333 2781.35,-333 2781.35,-333"/>
<polygon fill="#dc2626" stroke="#dc2626" points="2781.35,-335.8 2789.35,-333 2781.35,-330.2 2781.35,-335.8"/>
<text text-anchor="middle" x="2195" y="-269.2" font-family="Noto Sans CJK SC" font-size="11.00" fill="#374151">运动服务调用</text>
</g>
<!-- moduan_motion -->
<g id="node13" class="node">
<title>moduan_motion</title>
<path fill="#f0fdf4" stroke="#86efac" d="M1967.5,-168C1967.5,-168 1798.5,-168 1798.5,-168 1792.5,-168 1786.5,-162 1786.5,-156 1786.5,-156 1786.5,-140 1786.5,-140 1786.5,-134 1792.5,-128 1798.5,-128 1798.5,-128 1967.5,-128 1967.5,-128 1973.5,-128 1979.5,-134 1979.5,-140 1979.5,-140 1979.5,-156 1979.5,-156 1979.5,-162 1973.5,-168 1967.5,-168"/>
<text text-anchor="middle" x="1883" y="-151.6" font-family="Noto Sans CJK SC" font-size="13.00" fill="#111827">moduan_motion_controller</text>
<text text-anchor="middle" x="1883" y="-137.6" font-family="Noto Sans CJK SC" font-size="13.00" fill="#111827">线性模组运动控制</text>
</g>
<!-- moduan_driver -->
<g id="node16" class="node">
<title>moduan_driver</title>
<path fill="#faf5ff" stroke="#d8b4fe" d="M3201,-341C3201,-341 3065,-341 3065,-341 3059,-341 3053,-335 3053,-329 3053,-329 3053,-313 3053,-313 3053,-307 3059,-301 3065,-301 3065,-301 3201,-301 3201,-301 3207,-301 3213,-307 3213,-313 3213,-313 3213,-329 3213,-329 3213,-335 3207,-341 3201,-341"/>
<text text-anchor="middle" x="3133" y="-324.6" font-family="Noto Sans CJK SC" font-size="13.00" fill="#111827">moduan_driver_node</text>
<text text-anchor="middle" x="3133" y="-310.6" font-family="Noto Sans CJK SC" font-size="13.00" fill="#111827">Modbus 原子寄存器动作</text>
</g>
<!-- moduan_motion&#45;&gt;moduan_driver -->
<g id="edge23" class="edge">
<title>moduan_motion&#45;&gt;moduan_driver</title>
<path fill="none" stroke="#dc2626" d="M1883,-168.16C1883,-204.44 1883,-277 1883,-277 1883,-277 3111.25,-277 3111.25,-277 3111.25,-277 3111.25,-292.8 3111.25,-292.8"/>
<polygon fill="#dc2626" stroke="#dc2626" points="3108.45,-292.8 3111.25,-300.8 3114.05,-292.8 3108.45,-292.8"/>
<text text-anchor="middle" x="2874.5" y="-269.2" font-family="Noto Sans CJK SC" font-size="11.00" fill="#374151">raw_execute_points / single_move</text>
</g>
<!-- executor&#45;&gt;frontend -->
<g id="edge29" class="edge">
<title>executor&#45;&gt;frontend</title>
<path fill="none" stroke="#16a34a" d="M1271.92,-314C1271.92,-314 978.43,-314 978.43,-314"/>
<polygon fill="#16a34a" stroke="#16a34a" points="978.43,-311.2 970.43,-314 978.43,-316.8 978.43,-311.2"/>
</g>
<!-- executor&#45;&gt;bind_map -->
<g id="edge17" class="edge">
<title>executor&#45;&gt;bind_map</title>
<path fill="none" stroke="#dc2626" d="M1313.67,-300.82C1313.67,-300.82 1313.67,-176.06 1313.67,-176.06"/>
<polygon fill="#dc2626" stroke="#dc2626" points="1316.47,-176.06 1313.67,-168.06 1310.87,-176.06 1316.47,-176.06"/>
<text text-anchor="middle" x="1316.5" y="-269.2" font-family="Noto Sans CJK SC" font-size="11.00" fill="#374151">扫描点构图</text>
</g>
<!-- executor&#45;&gt;planner -->
<g id="edge18" class="edge">
<title>executor&#45;&gt;planner</title>
<path fill="none" stroke="#dc2626" d="M1392.67,-300.82C1392.67,-300.82 1392.67,-176.06 1392.67,-176.06"/>
<polygon fill="#dc2626" stroke="#dc2626" points="1395.47,-176.06 1392.67,-168.06 1389.87,-176.06 1395.47,-176.06"/>
<text text-anchor="middle" x="1471.5" y="-269.2" font-family="Noto Sans CJK SC" font-size="11.00" fill="#374151">生成 bind_path</text>
</g>
<!-- executor&#45;&gt;cabin_motion -->
<g id="edge19" class="edge">
<title>executor&#45;&gt;cabin_motion</title>
<path fill="none" stroke="#dc2626" d="M1428.37,-309C1519.92,-309 1659,-309 1659,-309 1659,-309 1659,-176.07 1659,-176.07"/>
<polygon fill="#dc2626" stroke="#dc2626" points="1661.8,-176.07 1659,-168.07 1656.2,-176.07 1661.8,-176.07"/>
<text text-anchor="middle" x="1652" y="-269.2" font-family="Noto Sans CJK SC" font-size="11.00" fill="#374151">区域索驱位姿</text>
</g>
<!-- executor&#45;&gt;moduan_motion -->
<g id="edge20" class="edge">
<title>executor&#45;&gt;moduan_motion</title>
<path fill="none" stroke="#dc2626" d="M1428.15,-317C1565.26,-317 1834.75,-317 1834.75,-317 1834.75,-317 1834.75,-176.05 1834.75,-176.05"/>
<polygon fill="#dc2626" stroke="#dc2626" points="1837.55,-176.05 1834.75,-168.05 1831.95,-176.05 1837.55,-176.05"/>
<text text-anchor="middle" x="1842" y="-269.2" font-family="Noto Sans CJK SC" font-size="11.00" fill="#374151">点组 x/y/z</text>
</g>
<!-- runtime_data -->
<g id="node22" class="node">
<title>runtime_data</title>
<polygon fill="#f9fafb" stroke="#d1d5db" points="2224,-182 2221,-186 2200,-186 2197,-182 2020,-182 2020,-114 2224,-114 2224,-182"/>
<text text-anchor="middle" x="2122" y="-165.6" font-family="Noto Sans CJK SC" font-size="13.00" fill="#111827">运行账本与规划产物</text>
<text text-anchor="middle" x="2122" y="-151.6" font-family="Noto Sans CJK SC" font-size="13.00" fill="#111827">pseudo_slam_points.json</text>
<text text-anchor="middle" x="2122" y="-137.6" font-family="Noto Sans CJK SC" font-size="13.00" fill="#111827">pseudo_slam_bind_path.json</text>
<text text-anchor="middle" x="2122" y="-123.6" font-family="Noto Sans CJK SC" font-size="13.00" fill="#111827">bind_execution_memory.json</text>
</g>
<!-- executor&#45;&gt;runtime_data -->
<g id="edge21" class="edge">
<title>executor&#45;&gt;runtime_data</title>
<path fill="none" stroke="#16a34a" d="M1410.33,-300.98C1410.33,-261.41 1410.33,-177 1410.33,-177 1410.33,-177 2011.66,-177 2011.66,-177"/>
<polygon fill="#16a34a" stroke="#16a34a" points="2011.66,-179.8 2019.66,-177 2011.66,-174.2 2011.66,-179.8"/>
<text text-anchor="middle" x="2040" y="-269.2" font-family="Noto Sans CJK SC" font-size="11.00" fill="#374151">读写账本</text>
</g>
<!-- cabin_driver&#45;&gt;tf_stack -->
<g id="edge27" class="edge">
<title>cabin_driver&#45;&gt;tf_stack</title>
<path fill="none" stroke="#16a34a" d="M2901,-341.25C2901,-372.77 2901,-430 2901,-430 2901,-430 593.5,-430 593.5,-430 593.5,-430 593.5,-451.95 593.5,-451.95"/>
<polygon fill="#16a34a" stroke="#16a34a" points="590.7,-451.95 593.5,-459.95 596.3,-451.95 590.7,-451.95"/>
<text text-anchor="middle" x="1116" y="-428.2" font-family="Noto Sans CJK SC" font-size="11.00" fill="#374151">/cabin/cabin_data_upload</text>
</g>
<!-- cabin_hw -->
<g id="node19" class="node">
<title>cabin_hw</title>
<path fill="#f9fafb" stroke="#d1d5db" d="M2336,-168C2336,-168 2276,-168 2276,-168 2270,-168 2264,-162 2264,-156 2264,-156 2264,-140 2264,-140 2264,-134 2270,-128 2276,-128 2276,-128 2336,-128 2336,-128 2342,-128 2348,-134 2348,-140 2348,-140 2348,-156 2348,-156 2348,-162 2342,-168 2336,-168"/>
<text text-anchor="middle" x="2306" y="-151.6" font-family="Noto Sans CJK SC" font-size="13.00" fill="#111827">索驱本体</text>
<text text-anchor="middle" x="2306" y="-137.6" font-family="Noto Sans CJK SC" font-size="13.00" fill="#111827">TCP 控制器</text>
</g>
<!-- cabin_driver&#45;&gt;cabin_hw -->
<g id="edge24" class="edge">
<title>cabin_driver&#45;&gt;cabin_hw</title>
<path fill="none" stroke="#9333ea" d="M2789.43,-325C2617.15,-325 2306,-325 2306,-325 2306,-325 2306,-176.3 2306,-176.3"/>
<polygon fill="#9333ea" stroke="#9333ea" points="2308.8,-176.3 2306,-168.3 2303.2,-176.3 2308.8,-176.3"/>
<text text-anchor="middle" x="2330" y="-269.2" font-family="Noto Sans CJK SC" font-size="11.00" fill="#374151">TCP 帧</text>
</g>
<!-- moduan_driver&#45;&gt;moduan_motion -->
<g id="edge28" class="edge">
<title>moduan_driver&#45;&gt;moduan_motion</title>
<path fill="none" stroke="#16a34a" d="M3082.12,-300.97C3082.12,-280.91 3082.12,-253 3082.12,-253 3082.12,-253 1931.25,-253 1931.25,-253 1931.25,-253 1931.25,-176.25 1931.25,-176.25"/>
<polygon fill="#16a34a" stroke="#16a34a" points="1934.05,-176.25 1931.25,-168.25 1928.45,-176.25 1934.05,-176.25"/>
<text text-anchor="middle" x="2596" y="-269.2" font-family="Noto Sans CJK SC" font-size="11.00" fill="#374151">/moduan/moduan_gesture_data</text>
</g>
<!-- moduan_hw -->
<g id="node20" class="node">
<title>moduan_hw</title>
<path fill="#f9fafb" stroke="#d1d5db" d="M2554,-168C2554,-168 2400,-168 2400,-168 2394,-168 2388,-162 2388,-156 2388,-156 2388,-140 2388,-140 2388,-134 2394,-128 2400,-128 2400,-128 2554,-128 2554,-128 2560,-128 2566,-134 2566,-140 2566,-140 2566,-156 2566,-156 2566,-162 2560,-168 2554,-168"/>
<text text-anchor="middle" x="2477" y="-151.6" font-family="Noto Sans CJK SC" font-size="13.00" fill="#111827">线性模组 / PLC</text>
<text text-anchor="middle" x="2477" y="-137.6" font-family="Noto Sans CJK SC" font-size="13.00" fill="#111827">EN_DISABLE 0&#45;&gt;1 边沿触发</text>
</g>
<!-- moduan_driver&#45;&gt;moduan_hw -->
<g id="edge25" class="edge">
<title>moduan_driver&#45;&gt;moduan_hw</title>
<path fill="none" stroke="#9333ea" d="M3140.38,-300.79C3140.38,-267.56 3140.38,-205 3140.38,-205 3140.38,-205 2477,-205 2477,-205 2477,-205 2477,-176.26 2477,-176.26"/>
<polygon fill="#9333ea" stroke="#9333ea" points="2479.8,-176.26 2477,-168.26 2474.2,-176.26 2479.8,-176.26"/>
<text text-anchor="middle" x="3077" y="-269.2" font-family="Noto Sans CJK SC" font-size="11.00" fill="#374151">Modbus 寄存器</text>
</g>
<!-- camera_driver -->
<g id="node17" class="node">
<title>camera_driver</title>
<path fill="#faf5ff" stroke="#d8b4fe" d="M3380.5,-341C3380.5,-341 3265.5,-341 3265.5,-341 3259.5,-341 3253.5,-335 3253.5,-329 3253.5,-329 3253.5,-313 3253.5,-313 3253.5,-307 3259.5,-301 3265.5,-301 3265.5,-301 3380.5,-301 3380.5,-301 3386.5,-301 3392.5,-307 3392.5,-313 3392.5,-313 3392.5,-329 3392.5,-329 3392.5,-335 3386.5,-341 3380.5,-341"/>
<text text-anchor="middle" x="3323" y="-324.6" font-family="Noto Sans CJK SC" font-size="13.00" fill="#111827">scepter_manager</text>
<text text-anchor="middle" x="3323" y="-310.6" font-family="Noto Sans CJK SC" font-size="13.00" fill="#111827">相机 SDK 取帧与发布</text>
</g>
<!-- camera_driver&#45;&gt;pointai -->
<g id="edge13" class="edge">
<title>camera_driver&#45;&gt;pointai</title>
<path fill="none" stroke="#16a34a" d="M3323,-341.23C3323,-385.29 3323,-486 3323,-486 3323,-486 1454.56,-486 1454.56,-486"/>
<polygon fill="#16a34a" stroke="#16a34a" points="1454.56,-483.2 1446.56,-486 1454.56,-488.8 1454.56,-483.2"/>
<text text-anchor="middle" x="2463.5" y="-428.2" font-family="Noto Sans CJK SC" font-size="11.00" fill="#374151">/Scepter/ir/image_raw</text>
</g>
<!-- world_coord -->
<g id="node18" class="node">
<title>world_coord</title>
<path fill="#faf5ff" stroke="#d8b4fe" d="M3376.5,-168C3376.5,-168 3181.5,-168 3181.5,-168 3175.5,-168 3169.5,-162 3169.5,-156 3169.5,-156 3169.5,-140 3169.5,-140 3169.5,-134 3175.5,-128 3181.5,-128 3181.5,-128 3376.5,-128 3376.5,-128 3382.5,-128 3388.5,-134 3388.5,-140 3388.5,-140 3388.5,-156 3388.5,-156 3388.5,-162 3382.5,-168 3376.5,-168"/>
<text text-anchor="middle" x="3279" y="-151.6" font-family="Noto Sans CJK SC" font-size="13.00" fill="#111827">scepter_world_coord_processor</text>
<text text-anchor="middle" x="3279" y="-137.6" font-family="Noto Sans CJK SC" font-size="13.00" fill="#111827">raw_world_coord / world_coord</text>
</g>
<!-- camera_driver&#45;&gt;world_coord -->
<g id="edge12" class="edge">
<title>camera_driver&#45;&gt;world_coord</title>
<path fill="none" stroke="#16a34a" d="M3343.5,-300.82C3343.5,-300.82 3343.5,-176.06 3343.5,-176.06"/>
<polygon fill="#16a34a" stroke="#16a34a" points="3346.3,-176.06 3343.5,-168.06 3340.7,-176.06 3346.3,-176.06"/>
<text text-anchor="middle" x="3334" y="-269.2" font-family="Noto Sans CJK SC" font-size="11.00" fill="#374151">IR / Depth / PointCloud</text>
</g>
<!-- world_coord&#45;&gt;pointai -->
<g id="edge14" class="edge">
<title>world_coord&#45;&gt;pointai</title>
<path fill="none" stroke="#16a34a" d="M3233.25,-168.33C3233.25,-239.48 3233.25,-473 3233.25,-473 3233.25,-473 1454.65,-473 1454.65,-473"/>
<polygon fill="#16a34a" stroke="#16a34a" points="1454.65,-470.2 1446.65,-473 1454.65,-475.8 1454.65,-470.2"/>
<text text-anchor="middle" x="3575.5" y="-318.2" font-family="Noto Sans CJK SC" font-size="11.00" fill="#374151">/Scepter/worldCoord/raw_world_coord</text>
</g>
<!-- camera_hw -->
<g id="node21" class="node">
<title>camera_hw</title>
<path fill="#f9fafb" stroke="#d1d5db" d="M2754,-168C2754,-168 2618,-168 2618,-168 2612,-168 2606,-162 2606,-156 2606,-156 2606,-140 2606,-140 2606,-134 2612,-128 2618,-128 2618,-128 2754,-128 2754,-128 2760,-128 2766,-134 2766,-140 2766,-140 2766,-156 2766,-156 2766,-162 2760,-168 2754,-168"/>
<text text-anchor="middle" x="2686" y="-151.6" font-family="Noto Sans CJK SC" font-size="13.00" fill="#111827">Scepter ToF 相机</text>
<text text-anchor="middle" x="2686" y="-137.6" font-family="Noto Sans CJK SC" font-size="13.00" fill="#111827">IR / Depth / PointCloud</text>
</g>
<!-- camera_hw&#45;&gt;camera_driver -->
<g id="edge26" class="edge">
<title>camera_hw&#45;&gt;camera_driver</title>
<path fill="none" stroke="#9333ea" d="M2686,-168.19C2686,-172.09 2686,-175 2686,-175 2686,-175 3298.5,-175 3298.5,-175 3298.5,-175 3298.5,-292.7 3298.5,-292.7"/>
<polygon fill="#9333ea" stroke="#9333ea" points="3295.7,-292.7 3298.5,-300.7 3301.3,-292.7 3295.7,-292.7"/>
<text text-anchor="middle" x="3199" y="-269.2" font-family="Noto Sans CJK SC" font-size="11.00" fill="#374151">SDK 帧流</text>
</g>
</g>
</svg>
