<svg xmlns="http://www.w3.org/2000/svg" viewBox="0 0 1360 940" width="1360" height="940">
  <defs>
    <marker id="arrowA" markerWidth="10" markerHeight="7" refX="9" refY="3.5" orient="auto">
      <polygon points="0 0, 10 3.5, 0 7" fill="#10a37f"/>
    </marker>
    <marker id="arrowB" markerWidth="10" markerHeight="7" refX="9" refY="3.5" orient="auto">
      <polygon points="0 0, 10 3.5, 0 7" fill="#0f766e"/>
    </marker>
    <marker id="arrowC" markerWidth="10" markerHeight="7" refX="9" refY="3.5" orient="auto">
      <polygon points="0 0, 10 3.5, 0 7" fill="#0891b2"/>
    </marker>
    <marker id="arrowE" markerWidth="10" markerHeight="7" refX="9" refY="3.5" orient="auto">
      <polygon points="0 0, 10 3.5, 0 7" fill="#f59e0b"/>
    </marker>
    <marker id="arrowF" markerWidth="10" markerHeight="7" refX="9" refY="3.5" orient="auto">
      <polygon points="0 0, 10 3.5, 0 7" fill="#64748b"/>
    </marker>
    <marker id="arrowG" markerWidth="10" markerHeight="7" refX="9" refY="3.5" orient="auto">
      <polygon points="0 0, 10 3.5, 0 7" fill="#10a37f"/>
    </marker>
    <marker id="arrowH" markerWidth="10" markerHeight="7" refX="9" refY="3.5" orient="auto">
      <polygon points="0 0, 10 3.5, 0 7" fill="#94a3b8"/>
    </marker>
    <style>
    text { font-family: 'Noto Sans CJK SC', 'Droid Sans Fallback', 'PingFang SC', 'Microsoft YaHei', sans-serif; }
    .title { font-size: 24px; font-weight: 700; fill: #0f172a; }
    .subtitle { font-size: 13px; font-weight: 500; fill: #64748b; }
    .section { font-size: 13px; font-weight: 700; fill: #10a37f; letter-spacing: 1.4px; }
    .section-sub { font-size: 12px; font-weight: 500; fill: #94a3b8; }
    .node-title { font-size: 18px; font-weight: 700; fill: #0f172a; }
    .node-sub { font-size: 12px; font-weight: 500; fill: #475569; }
    .node-type { font-size: 11px; font-weight: 700; fill: #94a3b8; letter-spacing: 0.08em; }
    .arrow-label { font-size: 12px; font-weight: 600; fill: #475569; }
    .legend { font-size: 12px; font-weight: 500; fill: #475569; }
    .footnote { font-size: 12px; font-weight: 500; fill: #94a3b8; }
    </style>
  </defs>
  <rect width="1360.0" height="940.0" fill="#ffffff"/>
  <text x="48.0" y="48" text-anchor="start" class="title">当前系统数据链</text>
  <text x="48.0" y="72" text-anchor="start" class="subtitle">从前端请求、视觉世界点，到 pseudo_slam 账本与模端执行闭环</text>
  <line x1="48" y1="100" x2="1312.0" y2="100" stroke="#e2e8f0" stroke-width="1"/>
  <rect x="40.0" y="116.0" width="1280.0" height="100.0" rx="16.0" fill="none" stroke="#e2e8f0" stroke-width="1.4" stroke-dasharray="5 4"/>
  <text x="22.0" y="166.0" text-anchor="start" dominant-baseline="middle" font-size="14.0" font-weight="600" fill="#475569">1. 前端与服务入口</text>
  <rect x="40.0" y="236.0" width="1280.0" height="196.0" rx="16.0" fill="none" stroke="#e2e8f0" stroke-width="1.4" stroke-dasharray="5 4"/>
  <text x="22.0" y="334.0" text-anchor="start" dominant-baseline="middle" font-size="14.0" font-weight="600" fill="#475569">2. 扫描视觉与动态规划</text>
  <rect x="40.0" y="456.0" width="1280.0" height="214.0" rx="16.0" fill="none" stroke="#e2e8f0" stroke-width="1.4" stroke-dasharray="5 4"/>
  <text x="22.0" y="563.0" text-anchor="start" dominant-baseline="middle" font-size="14.0" font-weight="600" fill="#475569">3. 执行账本与局部点装载</text>
  <rect x="40.0" y="694.0" width="1280.0" height="150.0" rx="16.0" fill="none" stroke="#e2e8f0" stroke-width="1.4" stroke-dasharray="5 4"/>
  <text x="22.0" y="769.0" text-anchor="start" dominant-baseline="middle" font-size="14.0" font-weight="600" fill="#475569">4. 模端执行与闭环</text>
  <path d="M 270.0,166.0 L 290.4,166.0 L 389.6,164.0 L 410.0,164.0" fill="none" stroke="#10a37f" stroke-width="2.0" marker-end="url(#arrowA)"/>
  <path d="M 524.0,196.0 L 524.0,220.0 L 252.0,220.0 L 252.0,274.0" fill="none" stroke="#10a37f" stroke-width="2.0" marker-end="url(#arrowA)"/>
  <path d="M 418.0,303.0 L 438.4,303.0 L 449.6,301.0 L 470.0,301.0" fill="none" stroke="#10a37f" stroke-width="2.0" marker-end="url(#arrowA)"/>
  <path d="M 718.0,301.0 L 738.4,301.0 L 849.6,305.0 L 870.0,305.0" fill="none" stroke="#f59e0b" stroke-width="2.0" marker-end="url(#arrowE)"/>
  <path d="M 974.0,344.0 L 974.0,368.0 L 786.0,368.0 L 786.0,408.0 L 744.0,408.0" fill="none" stroke="#0891b2" stroke-width="2.0" marker-end="url(#arrowC)"/>
  <path d="M 744.0,408.0 L 826.0,408.0" fill="none" stroke="#0f766e" stroke-width="2.0" marker-end="url(#arrowB)"/>
  <path d="M 744.0,408.0 L 1080.0,408.0" fill="none" stroke="#0f766e" stroke-width="2.0" marker-end="url(#arrowB)"/>
  <path d="M 524.0,196.0 L 524.0,220.0 L 780.0,220.0 L 780.0,470.0 L 238.0,470.0 L 238.0,504.0" fill="none" stroke="#10a37f" stroke-width="2.0" marker-end="url(#arrowA)"/>
  <path d="M 388.0,533.0 L 405.6,533.0 L 405.6,538.0 L 426.0,538.0" fill="none" stroke="#0891b2" stroke-width="2.0" marker-end="url(#arrowC)"/>
  <path d="M 646.0,538.0 L 666.4,538.0 L 865.6,534.0 L 886.0,534.0" fill="none" stroke="#0891b2" stroke-width="2.0" marker-end="url(#arrowC)"/>
  <path d="M 1190.0,446.0 L 1190.0,470.0 L 1016.0,470.0 L 1016.0,488.0" fill="none" stroke="#0891b2" stroke-width="2.0" marker-end="url(#arrowC)"/>
  <path d="M 1016.0,580.0 L 1016.0,676.0 L 235.0,676.0 L 235.0,742.0" fill="none" stroke="#10a37f" stroke-width="2.0" marker-end="url(#arrowA)"/>
  <path d="M 360.0,771.0 L 380.4,771.0 L 447.6,767.0 L 468.0,767.0" fill="none" stroke="#10a37f" stroke-width="2.0" marker-end="url(#arrowA)"/>
  <path d="M 754.0,767.0 L 774.4,767.0 L 851.6,766.0 L 872.0,766.0" fill="none" stroke="#10a37f" stroke-width="2.0" marker-end="url(#arrowA)"/>
  <path d="M 1068.0,766.0 L 1088.4,766.0 L 1089.6,771.0 L 1110.0,771.0" fill="none" stroke="#10a37f" stroke-width="2.0" marker-end="url(#arrowA)" stroke-dasharray="6,4"/>
  <path d="M 1205.0,742.0 L 1205.0,620.0 L 536.0,620.0 L 536.0,576.0" fill="none" stroke="#0f766e" stroke-width="2.0" marker-end="url(#arrowB)"/>
  <rect x="90.0" y="140.0" width="180.0" height="52.0" rx="14.0" fill="#ffffff" stroke="#dce5e3" stroke-width="1.8"/>
  <text x="180.0" y="158.0" text-anchor="middle" class="node-type">ENTRY</text>
  <text x="180.0" y="172.0" text-anchor="middle" class="node-title">新前端</text>
  <rect x="410.0" y="132.0" width="228.0" height="64.0" rx="14.0" fill="#ffffff" stroke="#10a37f" stroke-width="2.0"/>
  <rect x="416.0" y="138.0" width="216.0" height="52.0" rx="11.0" fill="none" stroke="#10a37f" stroke-width="1.2" opacity="0.65"/>
  <text x="524.0" y="150.0" text-anchor="middle" class="node-type">BRIDGE</text>
  <text x="524.0" y="170.0" text-anchor="middle" class="node-title">topics_transfer</text>
  <rect x="86.0" y="274.0" width="332.0" height="58.0" rx="14.0" fill="#ffffff" stroke="#dce5e3" stroke-width="1.8"/>
  <text x="252.0" y="292.0" text-anchor="middle" class="node-type">SERVICE</text>
  <text x="252.0" y="309.0" text-anchor="middle" class="node-title">/cabin/start_pseudo_slam_scan_with_options</text>
  <rect x="470.0" y="262.0" width="248.0" height="78.0" rx="14.0" fill="#ffffff" stroke="#10a37f" stroke-width="2.0"/>
  <rect x="476.0" y="268.0" width="236.0" height="66.0" rx="11.0" fill="none" stroke="#10a37f" stroke-width="1.2" opacity="0.65"/>
  <text x="594.0" y="280.0" text-anchor="middle" class="node-type">VISION</text>
  <text x="594.0" y="307.0" text-anchor="middle" class="node-title">pointAI /process_image</text>
  <text x="594.0" y="329.0" text-anchor="middle" class="node-sub">MODE_SCAN_ONLY=3 -&gt; 世界点</text>
  <path d="M 870.0 284.0 L 891.6 284.0 L 901.32 266.0 L 924.0 266.0 L 1078.0 266.0 L 1078.0 344.0 L 870.0 344.0 Z" fill="#ffffff" stroke="#dce5e3" stroke-width="2.0"/>
  <line x1="892.0" y1="308.0" x2="1056.0" y2="308.0" stroke="#dce5e3" stroke-opacity="0.35" stroke-width="1.2"/>
  <line x1="892.0" y1="322.0" x2="1056.0" y2="322.0" stroke="#dce5e3" stroke-opacity="0.35" stroke-width="1.2"/>
  <line x1="892.0" y1="336.0" x2="1056.0" y2="336.0" stroke="#dce5e3" stroke-opacity="0.35" stroke-width="1.2"/>
  <text x="974.0" y="370.0" text-anchor="middle" class="node-title">PointCoordinatesArray</text>
  <text x="974.0" y="388.0" text-anchor="middle" class="node-sub">scan world points</text>
  <rect x="444.0" y="366.0" width="300.0" height="84.0" rx="14.0" fill="#ffffff" stroke="#10a37f" stroke-width="2.0"/>
  <rect x="450.0" y="372.0" width="288.0" height="72.0" rx="11.0" fill="none" stroke="#10a37f" stroke-width="1.2" opacity="0.65"/>
  <text x="594.0" y="384.0" text-anchor="middle" class="node-type">PLANNER</text>
  <text x="594.0" y="414.0" text-anchor="middle" class="node-title">动态规划生成 area/group</text>
  <text x="594.0" y="436.0" text-anchor="middle" class="node-sub">build_dynamic_bind_area_entries_from_scan_world</text>
  <path d="M 826.0 370.0 L 1029.28 370.0 L 1046.0 386.72 L 1046.0 446.0 L 826.0 446.0 Z" fill="#ffffff" stroke="#dce5e3" stroke-width="2.0"/>
  <path d="M 1029.28 370.0 L 1029.28 386.72 L 1046.0 386.72" fill="none" stroke="#dce5e3" stroke-width="2.0"/>
  <line x1="844.0" y1="396.0" x2="1018.0" y2="396.0" stroke="#c4b5fd" stroke-width="1.2"/>
  <line x1="844.0" y1="410.0" x2="1018.0" y2="410.0" stroke="#c4b5fd" stroke-width="1.2"/>
  <line x1="844.0" y1="424.0" x2="1018.0" y2="424.0" stroke="#c4b5fd" stroke-width="1.2"/>
  <line x1="844.0" y1="438.0" x2="1018.0" y2="438.0" stroke="#c4b5fd" stroke-width="1.2"/>
  <text x="936.0" y="472.0" text-anchor="middle" class="node-title">pseudo_slam_points.json</text>
  <path d="M 1080.0 370.0 L 1283.28 370.0 L 1300.0 386.72 L 1300.0 446.0 L 1080.0 446.0 Z" fill="#ffffff" stroke="#dce5e3" stroke-width="2.0"/>
  <path d="M 1283.28 370.0 L 1283.28 386.72 L 1300.0 386.72" fill="none" stroke="#dce5e3" stroke-width="2.0"/>
  <line x1="1098.0" y1="396.0" x2="1272.0" y2="396.0" stroke="#c4b5fd" stroke-width="1.2"/>
  <line x1="1098.0" y1="410.0" x2="1272.0" y2="410.0" stroke="#c4b5fd" stroke-width="1.2"/>
  <line x1="1098.0" y1="424.0" x2="1272.0" y2="424.0" stroke="#c4b5fd" stroke-width="1.2"/>
  <line x1="1098.0" y1="438.0" x2="1272.0" y2="438.0" stroke="#c4b5fd" stroke-width="1.2"/>
  <text x="1190.0" y="472.0" text-anchor="middle" class="node-title">pseudo_slam_bind_path.json</text>
  <rect x="88.0" y="504.0" width="300.0" height="58.0" rx="14.0" fill="#ffffff" stroke="#dce5e3" stroke-width="1.8"/>
  <text x="238.0" y="522.0" text-anchor="middle" class="node-type">SERVICE</text>
  <text x="238.0" y="539.0" text-anchor="middle" class="node-title">/cabin/start_work_with_options</text>
  <path d="M 426.0 500.0 L 629.28 500.0 L 646.0 516.72 L 646.0 576.0 L 426.0 576.0 Z" fill="#ffffff" stroke="#dce5e3" stroke-width="2.0"/>
  <path d="M 629.28 500.0 L 629.28 516.72 L 646.0 516.72" fill="none" stroke="#dce5e3" stroke-width="2.0"/>
  <line x1="444.0" y1="526.0" x2="618.0" y2="526.0" stroke="#c4b5fd" stroke-width="1.2"/>
  <line x1="444.0" y1="540.0" x2="618.0" y2="540.0" stroke="#c4b5fd" stroke-width="1.2"/>
  <line x1="444.0" y1="554.0" x2="618.0" y2="554.0" stroke="#c4b5fd" stroke-width="1.2"/>
  <line x1="444.0" y1="568.0" x2="618.0" y2="568.0" stroke="#c4b5fd" stroke-width="1.2"/>
  <text x="536.0" y="602.0" text-anchor="middle" class="node-title">bind_execution_memory.json</text>
  <rect x="886.0" y="488.0" width="260.0" height="92.0" rx="14.0" fill="#ffffff" stroke="#10a37f" stroke-width="2.0"/>
  <rect x="892.0" y="494.0" width="248.0" height="80.0" rx="11.0" fill="none" stroke="#10a37f" stroke-width="1.2" opacity="0.65"/>
  <text x="1016.0" y="506.0" text-anchor="middle" class="node-type">LOADER</text>
  <text x="1016.0" y="540.0" text-anchor="middle" class="node-title">装载执行组局部点</text>
  <text x="1016.0" y="562.0" text-anchor="middle" class="node-sub">严格读取 groups[].x/y/z</text>
  <rect x="110.0" y="742.0" width="250.0" height="58.0" rx="14.0" fill="#ffffff" stroke="#dce5e3" stroke-width="1.8"/>
  <text x="235.0" y="760.0" text-anchor="middle" class="node-type">SERVICE</text>
  <text x="235.0" y="777.0" text-anchor="middle" class="node-title">/moduan/sg_precomputed</text>
  <rect x="468.0" y="724.0" width="286.0" height="86.0" rx="14.0" fill="#ffffff" stroke="#10a37f" stroke-width="2.0"/>
  <rect x="474.0" y="730.0" width="274.0" height="74.0" rx="11.0" fill="none" stroke="#10a37f" stroke-width="1.2" opacity="0.65"/>
  <text x="611.0" y="742.0" text-anchor="middle" class="node-type">ACTUATOR</text>
  <text x="611.0" y="773.0" text-anchor="middle" class="node-title">moduanNode 执行</text>
  <text x="611.0" y="795.0" text-anchor="middle" class="node-sub">execute_bind_points(TCP局部点)</text>
  <ellipse cx="970.0" cy="721.0" rx="49.0" ry="15.0" fill="#ecfdf5" stroke="#10b981" stroke-width="2.2"/>
  <rect x="872.0" y="721.0" width="196.0" height="90.0" fill="#ecfdf5" stroke="#10b981" stroke-width="2.2"/>
  <ellipse cx="970.0" cy="811.0" rx="49.0" ry="15.0" fill="#ecfdf5" stroke="#10b981" stroke-width="2.2"/>
  <ellipse cx="970.0" cy="751.6" rx="49.0" ry="15.0" fill="none" stroke="#10b981" stroke-opacity="0.45" stroke-width="1.2"/>
  <ellipse cx="970.0" cy="778.0" rx="49.0" ry="15.0" fill="none" stroke="#10b981" stroke-opacity="0.25" stroke-width="1.2"/>
  <text x="970.0" y="760.0" text-anchor="middle" class="node-title">PLC / FINISHALL</text>
  <text x="970.0" y="784.0" text-anchor="middle" class="node-sub">模端完成硬判据</text>
  <rect x="1110.0" y="742.0" width="190.0" height="58.0" rx="14.0" fill="#ffffff" stroke="#dce5e3" stroke-width="1.8"/>
  <text x="1205.0" y="760.0" text-anchor="middle" class="node-type">LEDGER</text>
  <text x="1205.0" y="777.0" text-anchor="middle" class="node-title">回写执行记忆</text>
  <rect x="776.0" y="273.0" width="36" height="20" rx="6" fill="#ffffff" opacity="0.96"/>
  <text x="794.0" y="287.0" text-anchor="middle" class="arrow-label">世界点</text>
  <rect x="838.0" y="354.0" width="84" height="20" rx="6" fill="#ffffff" opacity="0.96"/>
  <text x="880.0" y="368.0" text-anchor="middle" class="arrow-label">scan world</text>
  <rect x="356.3" y="524.0" width="119" height="20" rx="6" fill="#ffffff" opacity="0.96"/>
  <text x="415.8" y="538.0" text-anchor="middle" class="arrow-label">executed_points</text>
  <rect x="741.5" y="506.0" width="49" height="20" rx="6" fill="#ffffff" opacity="0.96"/>
  <text x="766.0" y="520.0" text-anchor="middle" class="arrow-label">去重/跳绑</text>
  <rect x="1022.5" y="456.0" width="161" height="20" rx="6" fill="#ffffff" opacity="0.96"/>
  <text x="1103.0" y="470.0" text-anchor="middle" class="arrow-label">area/group/cabin_pose</text>
  <rect x="597.5" y="646.0" width="56" height="20" rx="6" fill="#ffffff" opacity="0.96"/>
  <text x="625.5" y="660.0" text-anchor="middle" class="arrow-label">TCP局部点</text>
  <rect x="1039.7" y="752.0" width="77" height="20" rx="6" fill="#ffffff" opacity="0.96"/>
  <text x="1078.2" y="766.0" text-anchor="middle" class="arrow-label">FINISHALL</text>
  <line x1="42.0" y1="866.0" x2="72.0" y2="866.0" stroke="#10a37f" stroke-width="2.0" marker-end="url(#arrowA)"/>
  <text x="82.0" y="870.0" class="legend">请求 / 调用链</text>
  <line x1="42.0" y1="888.0" x2="72.0" y2="888.0" stroke="#f59e0b" stroke-width="2.0" marker-end="url(#arrowE)"/>
  <text x="82.0" y="892.0" class="legend">点位数据</text>
  <line x1="42.0" y1="910.0" x2="72.0" y2="910.0" stroke="#0891b2" stroke-width="2.0" marker-end="url(#arrowC)"/>
  <text x="82.0" y="914.0" class="legend">账本读取</text>
  <line x1="42.0" y1="932.0" x2="72.0" y2="932.0" stroke="#0f766e" stroke-width="2.0" marker-end="url(#arrowB)"/>
  <text x="82.0" y="936.0" class="legend">账本写入</text>
  <line x1="42.0" y1="954.0" x2="72.0" y2="954.0" stroke="#10a37f" stroke-width="2.0" marker-end="url(#arrowA)"/>
  <text x="82.0" y="958.0" class="legend">PLC 完成反馈</text>
  <text x="42.0" y="924.0" class="footnote">代码口径: topics_transfer -&gt; suoquNode -&gt; pointAI -&gt; pseudo_slam JSON -&gt; moduanNode -&gt; PLC</text>
</svg>