<svg xmlns="http://www.w3.org/2000/svg" viewBox="0 0 1440 1060" width="1440" height="1060">
  <defs>
    <marker id="arrowA" markerWidth="10" markerHeight="7" refX="9" refY="3.5" orient="auto">
      <polygon points="0 0, 10 3.5, 0 7" fill="#10a37f"/>
    </marker>
    <marker id="arrowB" markerWidth="10" markerHeight="7" refX="9" refY="3.5" orient="auto">
      <polygon points="0 0, 10 3.5, 0 7" fill="#0f766e"/>
    </marker>
    <marker id="arrowC" markerWidth="10" markerHeight="7" refX="9" refY="3.5" orient="auto">
      <polygon points="0 0, 10 3.5, 0 7" fill="#0891b2"/>
    </marker>
    <marker id="arrowE" markerWidth="10" markerHeight="7" refX="9" refY="3.5" orient="auto">
      <polygon points="0 0, 10 3.5, 0 7" fill="#f59e0b"/>
    </marker>
    <marker id="arrowF" markerWidth="10" markerHeight="7" refX="9" refY="3.5" orient="auto">
      <polygon points="0 0, 10 3.5, 0 7" fill="#64748b"/>
    </marker>
    <marker id="arrowG" markerWidth="10" markerHeight="7" refX="9" refY="3.5" orient="auto">
      <polygon points="0 0, 10 3.5, 0 7" fill="#10a37f"/>
    </marker>
    <marker id="arrowH" markerWidth="10" markerHeight="7" refX="9" refY="3.5" orient="auto">
      <polygon points="0 0, 10 3.5, 0 7" fill="#94a3b8"/>
    </marker>
    <style>
    text { font-family: 'Noto Sans CJK SC', 'Droid Sans Fallback', 'PingFang SC', 'Microsoft YaHei', sans-serif; }
    .title { font-size: 24px; font-weight: 700; fill: #0f172a; }
    .subtitle { font-size: 13px; font-weight: 500; fill: #64748b; }
    .section { font-size: 13px; font-weight: 700; fill: #10a37f; letter-spacing: 1.4px; }
    .section-sub { font-size: 12px; font-weight: 500; fill: #94a3b8; }
    .node-title { font-size: 18px; font-weight: 700; fill: #0f172a; }
    .node-sub { font-size: 12px; font-weight: 500; fill: #475569; }
    .node-type { font-size: 11px; font-weight: 700; fill: #94a3b8; letter-spacing: 0.08em; }
    .arrow-label { font-size: 12px; font-weight: 600; fill: #475569; }
    .legend { font-size: 12px; font-weight: 500; fill: #475569; }
    .footnote { font-size: 12px; font-weight: 500; fill: #94a3b8; }
    </style>
  </defs>
  <rect width="1440.0" height="1060.0" fill="#ffffff"/>
  <text x="48.0" y="48" text-anchor="start" class="title">当前系统动作链</text>
  <text x="48.0" y="72" text-anchor="start" class="subtitle">扫描建图、开始执行层、当前区域预计算直执行三条主动作流程</text>
  <line x1="48" y1="100" x2="1392.0" y2="100" stroke="#e2e8f0" stroke-width="1"/>
  <rect x="40.0" y="116.0" width="1360.0" height="208.0" rx="16.0" fill="none" stroke="#e2e8f0" stroke-width="1.4" stroke-dasharray="5 4"/>
  <text x="22.0" y="220.0" text-anchor="start" dominant-baseline="middle" font-size="14.0" font-weight="600" fill="#475569">1. 扫描建图主链</text>
  <rect x="40.0" y="352.0" width="1360.0" height="316.0" rx="16.0" fill="none" stroke="#e2e8f0" stroke-width="1.4" stroke-dasharray="5 4"/>
  <text x="22.0" y="510.0" text-anchor="start" dominant-baseline="middle" font-size="14.0" font-weight="600" fill="#475569">2. 开始执行层主链</text>
  <rect x="40.0" y="704.0" width="1360.0" height="176.0" rx="16.0" fill="none" stroke="#e2e8f0" stroke-width="1.4" stroke-dasharray="5 4"/>
  <text x="22.0" y="792.0" text-anchor="start" dominant-baseline="middle" font-size="14.0" font-weight="600" fill="#475569">3. 当前区域预计算直执行</text>
  <rect x="40.0" y="908.0" width="1360.0" height="96.0" rx="16.0" fill="none" stroke="#e2e8f0" stroke-width="1.4" stroke-dasharray="5 4"/>
  <text x="22.0" y="956.0" text-anchor="start" dominant-baseline="middle" font-size="14.0" font-weight="600" fill="#475569">4. 无账本兜底</text>
  <path d="M 222.0,180.0 L 242.4,180.0 L 243.6,178.0 L 264.0,178.0" fill="none" stroke="#10a37f" stroke-width="2.0" marker-end="url(#arrowA)"/>
  <path d="M 454.0,178.0 L 474.4,178.0 L 489.6,181.0 L 510.0,181.0" fill="none" stroke="#10a37f" stroke-width="2.0" marker-end="url(#arrowA)"/>
  <path d="M 740.0,181.0 L 760.4,181.0 L 787.6,180.0 L 808.0,180.0" fill="none" stroke="#10a37f" stroke-width="2.0" marker-end="url(#arrowA)"/>
  <path d="M 1018.0,180.0 L 1080.0,180.0" fill="none" stroke="#0f766e" stroke-width="2.0" marker-end="url(#arrowB)"/>
  <path d="M 230.0,436.0 L 250.4,436.0 L 265.6,434.0 L 286.0,434.0" fill="none" stroke="#10a37f" stroke-width="2.0" marker-end="url(#arrowA)"/>
  <path d="M 516.0,434.0 L 536.4,434.0 L 559.6,438.0 L 580.0,438.0" fill="none" stroke="#10a37f" stroke-width="2.0" marker-end="url(#arrowA)"/>
  <path d="M 786.0,438.0 L 806.4,438.0 L 833.6,437.0 L 854.0,437.0" fill="none" stroke="#10a37f" stroke-width="2.0" marker-end="url(#arrowA)"/>
  <path d="M 854.0,437.0 L 854.0,520.0 L 252.0,520.0 L 252.0,548.0" fill="none" stroke="#0891b2" stroke-width="2.0" marker-end="url(#arrowC)"/>
  <path d="M 352.0,581.0 L 410.0,581.0" fill="none" stroke="#10a37f" stroke-width="2.0" marker-end="url(#arrowA)"/>
  <path d="M 610.0,581.0 L 668.0,581.0" fill="none" stroke="#10a37f" stroke-width="2.0" marker-end="url(#arrowA)"/>
  <path d="M 898.0,581.0 L 960.0,581.0" fill="none" stroke="#10a37f" stroke-width="2.0" marker-end="url(#arrowA)"/>
  <path d="M 1180.0,581.0 L 1230.0,581.0" fill="none" stroke="#0f766e" stroke-width="2.0" marker-end="url(#arrowB)"/>
  <path d="M 1310.0,614.0 L 1310.0,652.0 L 510.0,652.0 L 510.0,614.0" fill="none" stroke="#10a37f" stroke-width="2.0" marker-end="url(#arrowA)" stroke-dasharray="6,4"/>
  <path d="M 278.0,782.0 L 298.4,782.0 L 309.6,780.0 L 330.0,780.0" fill="none" stroke="#10a37f" stroke-width="2.0" marker-end="url(#arrowA)"/>
  <path d="M 560.0,780.0 L 630.0,780.0" fill="none" stroke="#10a37f" stroke-width="2.0" marker-end="url(#arrowA)"/>
  <path d="M 840.0,780.0 L 920.0,780.0" fill="none" stroke="#10a37f" stroke-width="2.0" marker-end="url(#arrowA)"/>
  <path d="M 964.0,478.0 L 964.0,500.0 L 1188.0,500.0 L 1188.0,900.0 L 1030.0,900.0 L 1030.0,924.0" fill="none" stroke="#10a37f" stroke-width="2.0" marker-end="url(#arrowA)" stroke-dasharray="6,4"/>
  <rect x="70.0" y="154.0" width="152.0" height="52.0" rx="14.0" fill="#ffffff" stroke="#dce5e3" stroke-width="1.8"/>
  <text x="146.0" y="172.0" text-anchor="middle" class="node-type">UI</text>
  <text x="146.0" y="186.0" text-anchor="middle" class="node-title">扫描按钮</text>
  <rect x="264.0" y="146.0" width="190.0" height="64.0" rx="14.0" fill="#ffffff" stroke="#10a37f" stroke-width="2.0"/>
  <rect x="270.0" y="152.0" width="178.0" height="52.0" rx="11.0" fill="none" stroke="#10a37f" stroke-width="1.2" opacity="0.65"/>
  <text x="359.0" y="164.0" text-anchor="middle" class="node-type">BRIDGE</text>
  <text x="359.0" y="184.0" text-anchor="middle" class="node-title">topics_transfer</text>
  <rect x="510.0" y="140.0" width="230.0" height="82.0" rx="14.0" fill="#ffffff" stroke="#10a37f" stroke-width="2.0"/>
  <rect x="516.0" y="146.0" width="218.0" height="70.0" rx="11.0" fill="none" stroke="#10a37f" stroke-width="1.2" opacity="0.65"/>
  <text x="625.0" y="158.0" text-anchor="middle" class="node-type">SCAN LOOP</text>
  <text x="625.0" y="187.0" text-anchor="middle" class="node-title">run_pseudo_slam_scan</text>
  <text x="625.0" y="209.0" text-anchor="middle" class="node-sub">索驱到扫描位 -&gt; 请求视觉</text>
  <rect x="808.0" y="146.0" width="210.0" height="68.0" rx="14.0" fill="#ffffff" stroke="#dce5e3" stroke-width="1.8"/>
  <text x="913.0" y="164.0" text-anchor="middle" class="node-type">VISION</text>
  <text x="913.0" y="186.0" text-anchor="middle" class="node-title">pointAI scan_only</text>
  <text x="913.0" y="208.0" text-anchor="middle" class="node-sub">S2 / 世界点</text>
  <rect x="1080.0" y="142.0" width="260.0" height="76.0" rx="14.0" fill="#ffffff" stroke="#10a37f" stroke-width="2.0"/>
  <rect x="1086.0" y="148.0" width="248.0" height="64.0" rx="11.0" fill="none" stroke="#10a37f" stroke-width="1.2" opacity="0.65"/>
  <text x="1210.0" y="160.0" text-anchor="middle" class="node-type">PERSIST</text>
  <text x="1210.0" y="186.0" text-anchor="middle" class="node-title">落盘扫描产物</text>
  <text x="1210.0" y="208.0" text-anchor="middle" class="node-sub">points / bind_path / execution_memory</text>
  <rect x="70.0" y="410.0" width="160.0" height="52.0" rx="14.0" fill="#ffffff" stroke="#dce5e3" stroke-width="1.8"/>
  <text x="150.0" y="428.0" text-anchor="middle" class="node-type">UI</text>
  <text x="150.0" y="442.0" text-anchor="middle" class="node-title">开始执行层</text>
  <rect x="286.0" y="402.0" width="230.0" height="64.0" rx="14.0" fill="#ffffff" stroke="#10a37f" stroke-width="2.0"/>
  <rect x="292.0" y="408.0" width="218.0" height="52.0" rx="11.0" fill="none" stroke="#10a37f" stroke-width="1.2" opacity="0.65"/>
  <text x="401.0" y="420.0" text-anchor="middle" class="node-type">SERVICE</text>
  <text x="401.0" y="440.0" text-anchor="middle" class="node-title">/cabin/start_work_with_options</text>
  <rect x="580.0" y="410.0" width="206.0" height="56.0" rx="14.0" fill="#ffffff" stroke="#dce5e3" stroke-width="1.8"/>
  <text x="683.0" y="428.0" text-anchor="middle" class="node-type">OPTION</text>
  <text x="683.0" y="444.0" text-anchor="middle" class="node-title">可选先清 execution_memory</text>
  <path d="M 876.0 396.0 L 1052.0 396.0 L 1074.0 437.0 L 1052.0 478.0 L 876.0 478.0 L 854.0 437.0 Z" fill="#ffffff" stroke="#10a37f" stroke-width="2.0"/>
  <text x="964.0" y="414.0" text-anchor="middle" class="node-type">DECISION</text>
  <text x="964.0" y="443.0" text-anchor="middle" class="node-title">存在 bind_path?</text>
  <rect x="152.0" y="548.0" width="200.0" height="66.0" rx="14.0" fill="#ffffff" stroke="#dce5e3" stroke-width="1.8"/>
  <text x="252.0" y="566.0" text-anchor="middle" class="node-type">STEP</text>
  <text x="252.0" y="587.0" text-anchor="middle" class="node-title">回 path_origin</text>
  <rect x="410.0" y="548.0" width="200.0" height="66.0" rx="14.0" fill="#ffffff" stroke="#dce5e3" stroke-width="1.8"/>
  <text x="510.0" y="566.0" text-anchor="middle" class="node-type">STEP</text>
  <text x="510.0" y="587.0" text-anchor="middle" class="node-title">移动到 cabin_pose</text>
  <rect x="668.0" y="540.0" width="230.0" height="82.0" rx="14.0" fill="#ffffff" stroke="#10a37f" stroke-width="2.0"/>
  <rect x="674.0" y="546.0" width="218.0" height="70.0" rx="11.0" fill="none" stroke="#10a37f" stroke-width="1.2" opacity="0.65"/>
  <text x="783.0" y="558.0" text-anchor="middle" class="node-type">PREPARE</text>
  <text x="783.0" y="587.0" text-anchor="middle" class="node-title">过滤 + 装载 JSON x/y/z</text>
  <text x="783.0" y="609.0" text-anchor="middle" class="node-sub">不再运行时重算局部点</text>
  <rect x="960.0" y="540.0" width="220.0" height="82.0" rx="14.0" fill="#ffffff" stroke="#10a37f" stroke-width="2.0"/>
  <rect x="966.0" y="546.0" width="208.0" height="70.0" rx="11.0" fill="none" stroke="#10a37f" stroke-width="1.2" opacity="0.65"/>
  <text x="1070.0" y="558.0" text-anchor="middle" class="node-type">EXECUTE</text>
  <text x="1070.0" y="587.0" text-anchor="middle" class="node-title">sg_precomputed -&gt; 模端执行</text>
  <text x="1070.0" y="609.0" text-anchor="middle" class="node-sub">等待 FINISHALL</text>
  <rect x="1230.0" y="548.0" width="160.0" height="66.0" rx="14.0" fill="#ffffff" stroke="#dce5e3" stroke-width="1.8"/>
  <text x="1310.0" y="566.0" text-anchor="middle" class="node-type">LEDGER</text>
  <text x="1310.0" y="587.0" text-anchor="middle" class="node-title">回写 execution_memory</text>
  <rect x="78.0" y="756.0" width="200.0" height="52.0" rx="14.0" fill="#ffffff" stroke="#dce5e3" stroke-width="1.8"/>
  <text x="178.0" y="774.0" text-anchor="middle" class="node-type">UI</text>
  <text x="178.0" y="788.0" text-anchor="middle" class="node-title">single_bind = 1</text>
  <rect x="330.0" y="748.0" width="230.0" height="64.0" rx="14.0" fill="#ffffff" stroke="#10a37f" stroke-width="2.0"/>
  <rect x="336.0" y="754.0" width="218.0" height="52.0" rx="11.0" fill="none" stroke="#10a37f" stroke-width="1.2" opacity="0.65"/>
  <text x="445.0" y="766.0" text-anchor="middle" class="node-type">SERVICE</text>
  <text x="445.0" y="786.0" text-anchor="middle" class="node-title">/cabin/bind_current_area_from_scan</text>
  <rect x="630.0" y="748.0" width="210.0" height="64.0" rx="14.0" fill="#ffffff" stroke="#dce5e3" stroke-width="1.8"/>
  <text x="735.0" y="766.0" text-anchor="middle" class="node-type">AREA</text>
  <text x="735.0" y="786.0" text-anchor="middle" class="node-title">匹配最近 area</text>
  <rect x="920.0" y="748.0" width="250.0" height="64.0" rx="14.0" fill="#ffffff" stroke="#10a37f" stroke-width="2.0"/>
  <rect x="926.0" y="754.0" width="238.0" height="52.0" rx="11.0" fill="none" stroke="#10a37f" stroke-width="1.2" opacity="0.65"/>
  <text x="1045.0" y="766.0" text-anchor="middle" class="node-type">FAST PATH</text>
  <text x="1045.0" y="786.0" text-anchor="middle" class="node-title">sg_precomputed_fast</text>
  <text x="1045.0" y="808.0" text-anchor="middle" class="node-sub">当前区域局部点直执行</text>
  <rect x="900.0" y="924.0" width="260.0" height="64.0" rx="14.0" fill="#ffffff" stroke="#dce5e3" stroke-width="1.8"/>
  <text x="1030.0" y="942.0" text-anchor="middle" class="node-type">FALLBACK</text>
  <text x="1030.0" y="962.0" text-anchor="middle" class="node-title">run_live_visual_global_work</text>
  <text x="1030.0" y="984.0" text-anchor="middle" class="node-sub">仅在无账本且模式=live_visual</text>
  <rect x="1028.0" y="150.0" width="42" height="20" rx="6" fill="#ffffff" opacity="0.96"/>
  <text x="1049.0" y="164.0" text-anchor="middle" class="arrow-label">生成账本</text>
  <rect x="535.0" y="490.0" width="36" height="20" rx="6" fill="#ffffff" opacity="0.96"/>
  <text x="553.0" y="504.0" text-anchor="middle" class="arrow-label">yes</text>
  <rect x="1180.5" y="567.0" width="49" height="20" rx="6" fill="#ffffff" opacity="0.96"/>
  <text x="1205.0" y="581.0" text-anchor="middle" class="arrow-label">成功后记账</text>
  <rect x="850.5" y="622.0" width="119" height="20" rx="6" fill="#ffffff" opacity="0.96"/>
  <text x="910.0" y="636.0" text-anchor="middle" class="arrow-label">next group/area</text>
  <rect x="1107.0" y="686.0" width="126" height="20" rx="6" fill="#ffffff" opacity="0.96"/>
  <text x="1170.0" y="700.0" text-anchor="middle" class="arrow-label">no + live_visual</text>
  <line x1="42.0" y1="1010.0" x2="72.0" y2="1010.0" stroke="#10a37f" stroke-width="2.0" marker-end="url(#arrowA)"/>
  <text x="82.0" y="1014.0" class="legend">主动作链</text>
  <line x1="42.0" y1="1032.0" x2="72.0" y2="1032.0" stroke="#0891b2" stroke-width="2.0" marker-end="url(#arrowC)"/>
  <text x="82.0" y="1036.0" class="legend">账本命中 / 分流</text>
  <line x1="42.0" y1="1054.0" x2="72.0" y2="1054.0" stroke="#0f766e" stroke-width="2.0" marker-end="url(#arrowB)"/>
  <text x="82.0" y="1058.0" class="legend">成功后写账本</text>
  <line x1="42.0" y1="1076.0" x2="72.0" y2="1076.0" stroke="#10a37f" stroke-width="2.0" marker-end="url(#arrowA)"/>
  <text x="82.0" y="1080.0" class="legend">循环 / 兜底分支</text>
  <text x="42.0" y="1044.0" class="footnote">当前代码口径: 有 pseudo_slam_bind_path.json 时，开始执行层优先走 run_bind_from_scan</text>
</svg>