<svg xmlns="http://www.w3.org/2000/svg" viewBox="0 0 1440 980" width="1440" height="980">
  <defs>
    <marker id="arrowA" markerWidth="10" markerHeight="7" refX="9" refY="3.5" orient="auto">
      <polygon points="0 0, 10 3.5, 0 7" fill="#d97757"/>
    </marker>
    <marker id="arrowB" markerWidth="10" markerHeight="7" refX="9" refY="3.5" orient="auto">
      <polygon points="0 0, 10 3.5, 0 7" fill="#7b8b5c"/>
    </marker>
    <marker id="arrowC" markerWidth="10" markerHeight="7" refX="9" refY="3.5" orient="auto">
      <polygon points="0 0, 10 3.5, 0 7" fill="#8c6f5a"/>
    </marker>
    <marker id="arrowE" markerWidth="10" markerHeight="7" refX="9" refY="3.5" orient="auto">
      <polygon points="0 0, 10 3.5, 0 7" fill="#b45309"/>
    </marker>
    <marker id="arrowF" markerWidth="10" markerHeight="7" refX="9" refY="3.5" orient="auto">
      <polygon points="0 0, 10 3.5, 0 7" fill="#9a6fb0"/>
    </marker>
    <marker id="arrowG" markerWidth="10" markerHeight="7" refX="9" refY="3.5" orient="auto">
      <polygon points="0 0, 10 3.5, 0 7" fill="#d97757"/>
    </marker>
    <marker id="arrowH" markerWidth="10" markerHeight="7" refX="9" refY="3.5" orient="auto">
      <polygon points="0 0, 10 3.5, 0 7" fill="#8f8a80"/>
    </marker>
    <style>
    text { font-family: 'Helvetica Neue', Helvetica, Arial, 'PingFang SC', 'Microsoft YaHei', sans-serif; }
    .title { font-size: 24px; font-weight: 700; fill: #141413; }
    .subtitle { font-size: 13px; font-weight: 500; fill: #8f8a80; }
    .section { font-size: 13px; font-weight: 700; fill: #8b7355; letter-spacing: 1.4px; }
    .section-sub { font-size: 12px; font-weight: 500; fill: #b4aba0; }
    .node-title { font-size: 18px; font-weight: 700; fill: #141413; }
    .node-sub { font-size: 12px; font-weight: 500; fill: #6b6257; }
    .node-type { font-size: 11px; font-weight: 700; fill: #a29a8f; letter-spacing: 0.08em; }
    .arrow-label { font-size: 12px; font-weight: 600; fill: #6b6257; }
    .legend { font-size: 12px; font-weight: 500; fill: #6b6257; }
    .footnote { font-size: 12px; font-weight: 500; fill: #a29a8f; }
    </style>
  </defs>
  <rect width="1440.0" height="980.0" fill="#f8f6f3"/>
  <text x="720.0" y="56" text-anchor="middle" class="title">simple_lashingrobot_ws 节点传输总图</text>
  <text x="720.0" y="82" text-anchor="middle" class="subtitle">按节点关系梳理 topic、service、TF、日志与数据落盘，不强调执行先后，只强调谁在和谁传</text>
  <rect x="40.0" y="116.0" width="1360.0" height="92.0" rx="16.0" fill="none" stroke="#ded8cf" stroke-width="1.4" stroke-dasharray="5 4"/>
  <text x="22.0" y="162.0" text-anchor="start" dominant-baseline="middle" font-size="14.0" font-weight="600" fill="#6b6257">Web 入口</text>
  <rect x="40.0" y="232.0" width="1360.0" height="112.0" rx="16.0" fill="none" stroke="#ded8cf" stroke-width="1.4" stroke-dasharray="5 4"/>
  <text x="22.0" y="288.0" text-anchor="start" dominant-baseline="middle" font-size="14.0" font-weight="600" fill="#6b6257">桥接与传感</text>
  <rect x="40.0" y="370.0" width="1360.0" height="172.0" rx="16.0" fill="none" stroke="#ded8cf" stroke-width="1.4" stroke-dasharray="5 4"/>
  <text x="22.0" y="456.0" text-anchor="start" dominant-baseline="middle" font-size="14.0" font-weight="600" fill="#6b6257">运行时节点</text>
  <rect x="40.0" y="568.0" width="1360.0" height="118.0" rx="16.0" fill="none" stroke="#ded8cf" stroke-width="1.4" stroke-dasharray="5 4"/>
  <text x="22.0" y="627.0" text-anchor="start" dominant-baseline="middle" font-size="14.0" font-weight="600" fill="#6b6257">TF / 可视化回显</text>
  <rect x="40.0" y="712.0" width="1360.0" height="126.0" rx="16.0" fill="none" stroke="#ded8cf" stroke-width="1.4" stroke-dasharray="5 4"/>
  <text x="22.0" y="775.0" text-anchor="start" dominant-baseline="middle" font-size="14.0" font-weight="600" fill="#6b6257">数据落盘</text>
  <path d="M 260.0,163.0 L 340.0,163.0" fill="none" stroke="#d97757" stroke-width="2.0" marker-end="url(#arrowA)"/>
  <path d="M 439.0,194.0 L 439.0,214.4 L 201.0,239.6 L 201.0,260.0" fill="none" stroke="#d97757" stroke-width="2.0" marker-end="url(#arrowA)"/>
  <path d="M 854.0,163.0 L 1054.0,163.0" fill="none" stroke="#d97757" stroke-width="2.0" marker-end="url(#arrowA)" stroke-dasharray="6,4"/>
  <path d="M 955.0,266.0 L 954.0,250.0 L 954.0,108.0 L 170.0,108.0 L 170.0,188.0 L 171.0,188.0" fill="none" stroke="#d97757" stroke-width="2.0" marker-end="url(#arrowA)" stroke-dasharray="6,4"/>
  <path d="M 201.0,324.0 L 201.0,344.4 L 205.0,399.6 L 205.0,420.0" fill="none" stroke="#d97757" stroke-width="2.0" marker-end="url(#arrowA)"/>
  <path d="M 201.0,324.0 L 204.0,354.0 L 204.0,396.0 L 598.0,396.0 L 598.0,420.0 L 599.0,420.0" fill="none" stroke="#d97757" stroke-width="2.0" marker-end="url(#arrowA)"/>
  <path d="M 201.0,324.0 L 282.0,352.0 L 282.0,384.0 L 1036.0,384.0 L 1036.0,420.0" fill="none" stroke="#d97757" stroke-width="2.0" marker-end="url(#arrowA)"/>
  <path d="M 567.0,320.0 L 567.0,340.4 L 599.0,399.6 L 599.0,420.0" fill="none" stroke="#8c6f5a" stroke-width="2.0" marker-end="url(#arrowC)"/>
  <path d="M 340.0,462.0 L 470.0,462.0" fill="none" stroke="#8c6f5a" stroke-width="2.0" marker-end="url(#arrowC)"/>
  <path d="M 340.0,462.0 L 360.4,462.0 L 360.4,396.0 L 899.6,396.0 L 899.6,462.0 L 920.0,462.0" fill="none" stroke="#d97757" stroke-width="2.0" marker-end="url(#arrowA)"/>
  <path d="M 599.0,504.0 L 582.0,540.0 L 310.0,540.0 L 310.0,598.0" fill="none" stroke="#7b8b5c" stroke-width="2.0" marker-end="url(#arrowB)"/>
  <path d="M 438.0,627.0 L 438.0,626.0 L 1040.0,626.0 L 1054.0,163.0" fill="none" stroke="#d97757" stroke-width="2.0" marker-end="url(#arrowA)" stroke-dasharray="6,4"/>
  <path d="M 848.0,627.0 L 848.0,614.0 L 1040.0,614.0 L 1054.0,163.0" fill="none" stroke="#d97757" stroke-width="2.0" marker-end="url(#arrowA)" stroke-dasharray="6,4"/>
  <path d="M 728.0,462.0 L 728.0,452.0 L 1180.0,452.0 L 1180.0,190.0 L 1054.0,163.0" fill="none" stroke="#d97757" stroke-width="2.0" marker-end="url(#arrowA)" stroke-dasharray="6,4"/>
  <path d="M 340.0,462.0 L 340.0,470.0 L 1150.0,470.0 L 1150.0,190.0 L 1054.0,163.0" fill="none" stroke="#d97757" stroke-width="2.0" marker-end="url(#arrowA)" stroke-dasharray="6,4"/>
  <path d="M 205.0,504.0 L 205.0,524.4 L 149.0,721.6 L 149.0,742.0" fill="none" stroke="#7b8b5c" stroke-width="2.0" marker-end="url(#arrowB)"/>
  <path d="M 205.0,504.0 L 214.0,542.0 L 422.0,542.0 L 422.0,742.0" fill="none" stroke="#7b8b5c" stroke-width="2.0" marker-end="url(#arrowB)"/>
  <path d="M 205.0,504.0 L 256.0,550.0 L 738.0,550.0 L 738.0,742.0 L 737.0,742.0" fill="none" stroke="#7b8b5c" stroke-width="2.0" marker-end="url(#arrowB)"/>
  <path d="M 205.0,504.0 L 298.0,558.0 L 1034.0,558.0 L 1034.0,742.0 L 1035.0,742.0" fill="none" stroke="#7b8b5c" stroke-width="2.0" marker-end="url(#arrowB)"/>
  <rect x="82.0" y="138.0" width="178.0" height="50.0" rx="10.0" fill="#e9f1fb" stroke="#8c6f5a" stroke-width="1.8"/>
  <text x="171.0" y="156.0" text-anchor="middle" class="node-type">UI</text>
  <text x="171.0" y="169.0" text-anchor="middle" class="node-title">Web Frontend</text>
  <rect x="340.0" y="132.0" width="198.0" height="62.0" rx="10.0" fill="#f7ecda" stroke="#d97757" stroke-width="2.0"/>
  <rect x="346.0" y="138.0" width="186.0" height="50.0" rx="7.0" fill="none" stroke="#d97757" stroke-width="1.2" opacity="0.65"/>
  <text x="439.0" y="150.0" text-anchor="middle" class="node-type">BRIDGE</text>
  <text x="439.0" y="169.0" text-anchor="middle" class="node-title">rosbridge_websocket</text>
  <rect x="642.0" y="136.0" width="212.0" height="54.0" rx="10.0" fill="#efe8de" stroke="#d0c3b3" stroke-width="1.8"/>
  <text x="748.0" y="154.0" text-anchor="middle" class="node-type">TF WEB</text>
  <text x="748.0" y="169.0" text-anchor="middle" class="node-title">tf2_web_republisher</text>
  <rect x="1054.0" y="136.0" width="228.0" height="54.0" rx="10.0" fill="#e9f1fb" stroke="#8c6f5a" stroke-width="1.8"/>
  <text x="1168.0" y="154.0" text-anchor="middle" class="node-type">VIEW</text>
  <text x="1168.0" y="169.0" text-anchor="middle" class="node-title">Web / RViz / Overlay</text>
  <rect x="94.0" y="260.0" width="214.0" height="64.0" rx="10.0" fill="#f7ecda" stroke="#d0b893" stroke-width="2.0"/>
  <rect x="100.0" y="266.0" width="202.0" height="52.0" rx="7.0" fill="none" stroke="#d0b893" stroke-width="1.2" opacity="0.65"/>
  <text x="201.0" y="278.0" text-anchor="middle" class="node-type">ROUTER</text>
  <text x="201.0" y="298.0" text-anchor="middle" class="node-title">topicTransNode</text>
  <rect x="470.0" y="266.0" width="194.0" height="54.0" rx="10.0" fill="#e5e8df" stroke="#7b8b5c" stroke-width="1.8"/>
  <text x="567.0" y="284.0" text-anchor="middle" class="node-type">CAMERA</text>
  <text x="567.0" y="299.0" text-anchor="middle" class="node-title">ScepterROS</text>
  <rect x="856.0" y="266.0" width="198.0" height="54.0" rx="10.0" fill="#efe8de" stroke="#d0c3b3" stroke-width="1.8"/>
  <text x="955.0" y="284.0" text-anchor="middle" class="node-type">LOG MUX</text>
  <text x="955.0" y="299.0" text-anchor="middle" class="node-title">system_log_mux.py</text>
  <rect x="70.0" y="420.0" width="270.0" height="84.0" rx="10.0" fill="#c8e4db" stroke="#8c6f5a" stroke-width="2.0"/>
  <rect x="76.0" y="426.0" width="258.0" height="72.0" rx="7.0" fill="none" stroke="#8c6f5a" stroke-width="1.2" opacity="0.65"/>
  <text x="205.0" y="438.0" text-anchor="middle" class="node-type">ORCHESTRATOR</text>
  <text x="205.0" y="468.0" text-anchor="middle" class="node-title">suoquNode</text>
  <text x="205.0" y="490.0" text-anchor="middle" class="node-sub">规划、pseudo_slam、全局执行主编排</text>
  <rect x="470.0" y="420.0" width="258.0" height="84.0" rx="10.0" fill="#e9f1fb" stroke="#8c6f5a" stroke-width="2.0"/>
  <rect x="476.0" y="426.0" width="246.0" height="72.0" rx="7.0" fill="none" stroke="#8c6f5a" stroke-width="1.2" opacity="0.65"/>
  <text x="599.0" y="438.0" text-anchor="middle" class="node-type">VISION</text>
  <text x="599.0" y="468.0" text-anchor="middle" class="node-title">pointAI.py</text>
  <text x="599.0" y="490.0" text-anchor="middle" class="node-sub">视觉识别、ProcessImage、调试图像</text>
  <rect x="920.0" y="420.0" width="232.0" height="84.0" rx="10.0" fill="#f7ecda" stroke="#d97757" stroke-width="2.0"/>
  <rect x="926.0" y="426.0" width="220.0" height="72.0" rx="7.0" fill="none" stroke="#d97757" stroke-width="1.2" opacity="0.65"/>
  <text x="1036.0" y="438.0" text-anchor="middle" class="node-type">ACTUATOR</text>
  <text x="1036.0" y="468.0" text-anchor="middle" class="node-title">moduanNode</text>
  <text x="1036.0" y="490.0" text-anchor="middle" class="node-sub">线模运动、绑扎动作、预计算执行</text>
  <rect x="182.0" y="598.0" width="256.0" height="58.0" rx="10.0" fill="#efe8de" stroke="#d0c3b3" stroke-width="1.8"/>
  <text x="310.0" y="616.0" text-anchor="middle" class="node-type">TF NODE</text>
  <text x="310.0" y="633.0" text-anchor="middle" class="node-title">stable_point_tf_broadcaster.py</text>
  <rect x="608.0" y="598.0" width="240.0" height="58.0" rx="10.0" fill="#efe8de" stroke="#d0c3b3" stroke-width="1.8"/>
  <text x="728.0" y="616.0" text-anchor="middle" class="node-type">TF NODE</text>
  <text x="728.0" y="633.0" text-anchor="middle" class="node-title">gripper_tf_broadcaster.py</text>
  <path d="M 64.0 742.0 L 217.72 742.0 L 234.0 758.28 L 234.0 816.0 L 64.0 816.0 Z" fill="#fffaf3" stroke="#d0b893" stroke-width="2.0"/>
  <path d="M 217.72 742.0 L 217.72 758.28 L 234.0 758.28" fill="none" stroke="#d0b893" stroke-width="2.0"/>
  <line x1="82.0" y1="768.0" x2="206.0" y2="768.0" stroke="#c4b5fd" stroke-width="1.2"/>
  <line x1="82.0" y1="782.0" x2="206.0" y2="782.0" stroke="#c4b5fd" stroke-width="1.2"/>
  <line x1="82.0" y1="796.0" x2="206.0" y2="796.0" stroke="#c4b5fd" stroke-width="1.2"/>
  <line x1="82.0" y1="810.0" x2="206.0" y2="810.0" stroke="#c4b5fd" stroke-width="1.2"/>
  <text x="149.0" y="842.0" text-anchor="middle" class="node-title">path_points.json</text>
  <path d="M 326.0 742.0 L 501.72 742.0 L 518.0 758.28 L 518.0 816.0 L 326.0 816.0 Z" fill="#fffaf3" stroke="#7b8b5c" stroke-width="2.0"/>
  <path d="M 501.72 742.0 L 501.72 758.28 L 518.0 758.28" fill="none" stroke="#7b8b5c" stroke-width="2.0"/>
  <line x1="344.0" y1="768.0" x2="490.0" y2="768.0" stroke="#c4b5fd" stroke-width="1.2"/>
  <line x1="344.0" y1="782.0" x2="490.0" y2="782.0" stroke="#c4b5fd" stroke-width="1.2"/>
  <line x1="344.0" y1="796.0" x2="490.0" y2="796.0" stroke="#c4b5fd" stroke-width="1.2"/>
  <line x1="344.0" y1="810.0" x2="490.0" y2="810.0" stroke="#c4b5fd" stroke-width="1.2"/>
  <text x="422.0" y="842.0" text-anchor="middle" class="node-title">pseudo_slam_points.json</text>
  <path d="M 624.0 742.0 L 833.72 742.0 L 850.0 758.28 L 850.0 816.0 L 624.0 816.0 Z" fill="#fffaf3" stroke="#d97757" stroke-width="2.0"/>
  <path d="M 833.72 742.0 L 833.72 758.28 L 850.0 758.28" fill="none" stroke="#d97757" stroke-width="2.0"/>
  <line x1="642.0" y1="768.0" x2="822.0" y2="768.0" stroke="#c4b5fd" stroke-width="1.2"/>
  <line x1="642.0" y1="782.0" x2="822.0" y2="782.0" stroke="#c4b5fd" stroke-width="1.2"/>
  <line x1="642.0" y1="796.0" x2="822.0" y2="796.0" stroke="#c4b5fd" stroke-width="1.2"/>
  <line x1="642.0" y1="810.0" x2="822.0" y2="810.0" stroke="#c4b5fd" stroke-width="1.2"/>
  <text x="737.0" y="842.0" text-anchor="middle" class="node-title">pseudo_slam_bind_path.json</text>
  <path d="M 936.0 742.0 L 1117.72 742.0 L 1134.0 758.28 L 1134.0 816.0 L 936.0 816.0 Z" fill="#fffaf3" stroke="#8c6f5a" stroke-width="2.0"/>
  <path d="M 1117.72 742.0 L 1117.72 758.28 L 1134.0 758.28" fill="none" stroke="#8c6f5a" stroke-width="2.0"/>
  <line x1="954.0" y1="768.0" x2="1106.0" y2="768.0" stroke="#c4b5fd" stroke-width="1.2"/>
  <line x1="954.0" y1="782.0" x2="1106.0" y2="782.0" stroke="#c4b5fd" stroke-width="1.2"/>
  <line x1="954.0" y1="796.0" x2="1106.0" y2="796.0" stroke="#c4b5fd" stroke-width="1.2"/>
  <line x1="954.0" y1="810.0" x2="1106.0" y2="810.0" stroke="#c4b5fd" stroke-width="1.2"/>
  <text x="1035.0" y="842.0" text-anchor="middle" class="node-title">bind_execution_memory.json</text>
  <rect x="272.0" y="133.0" width="56" height="20" rx="6" fill="#f8f6f3" opacity="0.96"/>
  <text x="300.0" y="147.0" text-anchor="middle" class="arrow-label">/web/*</text>
  <rect x="257.0" y="197.0" width="126" height="20" rx="6" fill="#f8f6f3" opacity="0.96"/>
  <text x="320.0" y="211.0" text-anchor="middle" class="arrow-label">ROS topic bridge</text>
  <rect x="901.5" y="133.0" width="105" height="20" rx="6" fill="#f8f6f3" opacity="0.96"/>
  <text x="954.0" y="147.0" text-anchor="middle" class="arrow-label">TF web stream</text>
  <rect x="502.5" y="78.0" width="119" height="20" rx="6" fill="#f8f6f3" opacity="0.96"/>
  <text x="562.0" y="92.0" text-anchor="middle" class="arrow-label">/system_log/all</text>
  <rect x="105.0" y="342.0" width="196" height="20" rx="6" fill="#f8f6f3" opacity="0.96"/>
  <text x="203.0" y="356.0" text-anchor="middle" class="arrow-label">/cabin/plan_path + start_*</text>
  <rect x="317.0" y="366.0" width="168" height="20" rx="6" fill="#f8f6f3" opacity="0.96"/>
  <text x="401.0" y="380.0" text-anchor="middle" class="arrow-label">/pointAI/process_image</text>
  <rect x="540.0" y="354.0" width="238" height="20" rx="6" fill="#f8f6f3" opacity="0.96"/>
  <text x="659.0" y="368.0" text-anchor="middle" class="arrow-label">/moduan/single_move + /moduan/sg</text>
  <rect x="439.5" y="356.0" width="287" height="20" rx="6" fill="#f8f6f3" opacity="0.96"/>
  <text x="583.0" y="370.0" text-anchor="middle" class="arrow-label">/Scepter/color/* /depth/* /worldCoord/*</text>
  <rect x="342.0" y="448.0" width="126" height="20" rx="6" fill="#f8f6f3" opacity="0.96"/>
  <text x="405.0" y="462.0" text-anchor="middle" class="arrow-label">ProcessImage.srv</text>
  <rect x="476.0" y="382.0" width="308" height="20" rx="6" fill="#f8f6f3" opacity="0.96"/>
  <text x="630.0" y="396.0" text-anchor="middle" class="arrow-label">/moduan/sg_precomputed(_fast) / /moduan/sg</text>
  <rect x="379.5" y="510.0" width="133" height="20" rx="6" fill="#f8f6f3" opacity="0.96"/>
  <text x="446.0" y="524.0" text-anchor="middle" class="arrow-label">/coordinate_point</text>
  <rect x="987.5" y="364.5" width="119" height="20" rx="6" fill="#f8f6f3" opacity="0.96"/>
  <text x="1047.0" y="378.5" text-anchor="middle" class="arrow-label">stable point TF</text>
  <rect x="1005.0" y="390.5" width="84" height="20" rx="6" fill="#f8f6f3" opacity="0.96"/>
  <text x="1047.0" y="404.5" text-anchor="middle" class="arrow-label">gripper TF</text>
  <rect x="1078.0" y="307.0" width="168" height="20" rx="6" fill="#f8f6f3" opacity="0.96"/>
  <text x="1162.0" y="321.0" text-anchor="middle" class="arrow-label">/pointAI/* debug image</text>
  <rect x="566.5" y="456.0" width="357" height="20" rx="6" fill="#f8f6f3" opacity="0.96"/>
  <text x="745.0" y="470.0" text-anchor="middle" class="arrow-label">/cabin/pseudo_slam_markers + /cabin/area_progress</text>
  <rect x="135.0" y="609.0" width="84" height="20" rx="6" fill="#f8f6f3" opacity="0.96"/>
  <text x="177.0" y="623.0" text-anchor="middle" class="arrow-label">write plan</text>
  <rect x="251.5" y="544.0" width="133" height="20" rx="6" fill="#f8f6f3" opacity="0.96"/>
  <text x="318.0" y="558.0" text-anchor="middle" class="arrow-label">write scan points</text>
  <rect x="434.0" y="552.0" width="126" height="20" rx="6" fill="#f8f6f3" opacity="0.96"/>
  <text x="497.0" y="566.0" text-anchor="middle" class="arrow-label">write bind route</text>
  <rect x="582.0" y="528.0" width="168" height="20" rx="6" fill="#f8f6f3" opacity="0.96"/>
  <text x="666.0" y="542.0" text-anchor="middle" class="arrow-label">write execution memory</text>
  <rect x="1110.0" y="858.0" width="205" height="112" rx="10" fill="#fffaf3" opacity="0.88"/>
  <line x1="1120.0" y1="872.0" x2="1150.0" y2="872.0" stroke="#d97757" stroke-width="2.0" marker-end="url(#arrowA)"/>
  <text x="1160.0" y="876.0" class="legend">topic / service 控制链</text>
  <line x1="1120.0" y1="894.0" x2="1150.0" y2="894.0" stroke="#8c6f5a" stroke-width="2.0" marker-end="url(#arrowC)"/>
  <text x="1160.0" y="898.0" class="legend">图像输入与视觉请求</text>
  <line x1="1120.0" y1="916.0" x2="1150.0" y2="916.0" stroke="#7b8b5c" stroke-width="2.0" marker-end="url(#arrowB)"/>
  <text x="1160.0" y="920.0" class="legend">TF 输出与数据落盘</text>
  <line x1="1120.0" y1="938.0" x2="1150.0" y2="938.0" stroke="#d97757" stroke-width="2.0" marker-end="url(#arrowA)"/>
  <text x="1160.0" y="942.0" class="legend">前端回显、TF、日志与调试图像</text>
</svg>