<svg xmlns="http://www.w3.org/2000/svg" viewBox="0 0 1280 900" width="1280" height="900">
  <defs>
    <marker id="arrowA" markerWidth="10" markerHeight="7" refX="9" refY="3.5" orient="auto">
      <polygon points="0 0, 10 3.5, 0 7" fill="#d97757"/>
    </marker>
    <marker id="arrowB" markerWidth="10" markerHeight="7" refX="9" refY="3.5" orient="auto">
      <polygon points="0 0, 10 3.5, 0 7" fill="#7b8b5c"/>
    </marker>
    <marker id="arrowC" markerWidth="10" markerHeight="7" refX="9" refY="3.5" orient="auto">
      <polygon points="0 0, 10 3.5, 0 7" fill="#8c6f5a"/>
    </marker>
    <marker id="arrowE" markerWidth="10" markerHeight="7" refX="9" refY="3.5" orient="auto">
      <polygon points="0 0, 10 3.5, 0 7" fill="#b45309"/>
    </marker>
    <marker id="arrowF" markerWidth="10" markerHeight="7" refX="9" refY="3.5" orient="auto">
      <polygon points="0 0, 10 3.5, 0 7" fill="#9a6fb0"/>
    </marker>
    <marker id="arrowG" markerWidth="10" markerHeight="7" refX="9" refY="3.5" orient="auto">
      <polygon points="0 0, 10 3.5, 0 7" fill="#d97757"/>
    </marker>
    <marker id="arrowH" markerWidth="10" markerHeight="7" refX="9" refY="3.5" orient="auto">
      <polygon points="0 0, 10 3.5, 0 7" fill="#8f8a80"/>
    </marker>
    <style>
    text { font-family: 'Helvetica Neue', Helvetica, Arial, 'PingFang SC', 'Microsoft YaHei', sans-serif; }
    .title { font-size: 24px; font-weight: 700; fill: #141413; }
    .subtitle { font-size: 13px; font-weight: 500; fill: #8f8a80; }
    .section { font-size: 13px; font-weight: 700; fill: #8b7355; letter-spacing: 1.4px; }
    .section-sub { font-size: 12px; font-weight: 500; fill: #b4aba0; }
    .node-title { font-size: 18px; font-weight: 700; fill: #141413; }
    .node-sub { font-size: 12px; font-weight: 500; fill: #6b6257; }
    .node-type { font-size: 11px; font-weight: 700; fill: #a29a8f; letter-spacing: 0.08em; }
    .arrow-label { font-size: 12px; font-weight: 600; fill: #6b6257; }
    .legend { font-size: 12px; font-weight: 500; fill: #6b6257; }
    .footnote { font-size: 12px; font-weight: 500; fill: #a29a8f; }
    </style>
  </defs>
  <rect width="1280.0" height="900.0" fill="#f8f6f3"/>
  <text x="640.0" y="56" text-anchor="middle" class="title">simple_lashingrobot_ws 总体架构</text>
  <text x="640.0" y="82" text-anchor="middle" class="subtitle">前端桥接、视觉识别、pseudo_slam 建图、绑扎执行与数据落盘</text>
  <rect x="44.0" y="116.0" width="1192.0" height="92.0" rx="16.0" fill="none" stroke="#ded8cf" stroke-width="1.4" stroke-dasharray="5 4"/>
  <text x="28.0" y="162.0" text-anchor="start" dominant-baseline="middle" font-size="14.0" font-weight="600" fill="#6b6257">交互层</text>
  <rect x="44.0" y="236.0" width="1192.0" height="118.0" rx="16.0" fill="none" stroke="#ded8cf" stroke-width="1.4" stroke-dasharray="5 4"/>
  <text x="28.0" y="295.0" text-anchor="start" dominant-baseline="middle" font-size="14.0" font-weight="600" fill="#6b6257">桥接与传感层</text>
  <rect x="44.0" y="382.0" width="1192.0" height="180.0" rx="16.0" fill="none" stroke="#ded8cf" stroke-width="1.4" stroke-dasharray="5 4"/>
  <text x="28.0" y="472.0" text-anchor="start" dominant-baseline="middle" font-size="14.0" font-weight="600" fill="#6b6257">主控制层</text>
  <rect x="44.0" y="590.0" width="1192.0" height="118.0" rx="16.0" fill="none" stroke="#ded8cf" stroke-width="1.4" stroke-dasharray="5 4"/>
  <text x="28.0" y="649.0" text-anchor="start" dominant-baseline="middle" font-size="14.0" font-weight="600" fill="#6b6257">TF / 可视化层</text>
  <rect x="44.0" y="736.0" width="1192.0" height="108.0" rx="16.0" fill="none" stroke="#ded8cf" stroke-width="1.4" stroke-dasharray="5 4"/>
  <text x="28.0" y="790.0" text-anchor="start" dominant-baseline="middle" font-size="14.0" font-weight="600" fill="#6b6257">数据层</text>
  <path d="M 272.0,163.0 L 366.0,163.0" fill="none" stroke="#d97757" stroke-width="2.0" marker-end="url(#arrowA)"/>
  <path d="M 495.0,194.0 L 495.0,214.4 L 201.0,245.6 L 201.0,266.0" fill="none" stroke="#d97757" stroke-width="2.0" marker-end="url(#arrowA)"/>
  <path d="M 201.0,330.0 L 201.0,350.4 L 212.0,411.6 L 212.0,432.0" fill="none" stroke="#d97757" stroke-width="2.0" marker-end="url(#arrowA)"/>
  <path d="M 201.0,330.0 L 236.0,356.0 L 236.0,406.0 L 558.0,406.0 L 558.0,432.0" fill="none" stroke="#d97757" stroke-width="2.0" marker-end="url(#arrowA)"/>
  <path d="M 201.0,330.0 L 286.0,364.0 L 286.0,394.0 L 948.0,394.0 L 948.0,432.0 L 950.0,432.0" fill="none" stroke="#d97757" stroke-width="2.0" marker-end="url(#arrowA)"/>
  <path d="M 524.0,326.0 L 524.0,346.4 L 558.0,411.6 L 558.0,432.0" fill="none" stroke="#8c6f5a" stroke-width="2.0" marker-end="url(#arrowC)"/>
  <path d="M 872.0,326.0 L 872.0,346.4 L 929.0,599.6 L 929.0,620.0" fill="none" stroke="#d97757" stroke-width="2.0" marker-end="url(#arrowA)" stroke-dasharray="6,4"/>
  <path d="M 346.0,473.0 L 432.0,473.0" fill="none" stroke="#8c6f5a" stroke-width="2.0" marker-end="url(#arrowC)"/>
  <path d="M 346.0,473.0 L 366.4,473.0 L 366.4,408.0 L 815.6,408.0 L 815.6,473.0 L 836.0,473.0" fill="none" stroke="#d97757" stroke-width="2.0" marker-end="url(#arrowA)"/>
  <path d="M 558.0,514.0 L 558.0,548.0 L 220.0,548.0 L 220.0,620.0 L 222.0,620.0" fill="none" stroke="#7b8b5c" stroke-width="2.0" marker-end="url(#arrowB)"/>
  <path d="M 678.0,649.0 L 812.0,649.0" fill="none" stroke="#d97757" stroke-width="2.0" marker-end="url(#arrowA)"/>
  <path d="M 344.0,649.0 L 364.4,649.0 L 364.4,596.0 L 791.6,596.0 L 791.6,649.0 L 812.0,649.0" fill="none" stroke="#d97757" stroke-width="2.0" marker-end="url(#arrowA)"/>
  <path d="M 212.0,514.0 L 212.0,690.0 L 930.0,690.0 L 930.0,620.0 L 929.0,620.0" fill="none" stroke="#d97757" stroke-width="2.0" marker-end="url(#arrowA)" stroke-dasharray="6,4"/>
  <path d="M 212.0,514.0 L 140.0,564.0 L 140.0,766.0 L 151.0,766.0" fill="none" stroke="#7b8b5c" stroke-width="2.0" marker-end="url(#arrowB)"/>
  <path d="M 212.0,514.0 L 212.0,570.0 L 398.0,570.0 L 398.0,766.0 L 397.0,766.0" fill="none" stroke="#7b8b5c" stroke-width="2.0" marker-end="url(#arrowB)"/>
  <path d="M 212.0,514.0 L 260.0,576.0 L 668.0,576.0 L 668.0,766.0 L 669.0,766.0" fill="none" stroke="#7b8b5c" stroke-width="2.0" marker-end="url(#arrowB)"/>
  <path d="M 212.0,514.0 L 304.0,582.0 L 940.0,582.0 L 940.0,766.0 L 941.0,766.0" fill="none" stroke="#7b8b5c" stroke-width="2.0" marker-end="url(#arrowB)"/>
  <rect x="92.0" y="138.0" width="180.0" height="50.0" rx="10.0" fill="#e9f1fb" stroke="#8c6f5a" stroke-width="1.8"/>
  <text x="182.0" y="156.0" text-anchor="middle" class="node-type">UI</text>
  <text x="182.0" y="169.0" text-anchor="middle" class="node-title">Web Frontend</text>
  <rect x="366.0" y="132.0" width="258.0" height="62.0" rx="10.0" fill="#f7ecda" stroke="#d97757" stroke-width="2.0"/>
  <rect x="372.0" y="138.0" width="246.0" height="50.0" rx="7.0" fill="none" stroke="#d97757" stroke-width="1.2" opacity="0.65"/>
  <text x="495.0" y="150.0" text-anchor="middle" class="node-type">ACCESS</text>
  <text x="495.0" y="169.0" text-anchor="middle" class="node-title">rosbridge_websocket + tf2_web_republisher</text>
  <rect x="96.0" y="266.0" width="210.0" height="64.0" rx="10.0" fill="#f7ecda" stroke="#d0b893" stroke-width="2.0"/>
  <rect x="102.0" y="272.0" width="198.0" height="52.0" rx="7.0" fill="none" stroke="#d0b893" stroke-width="1.2" opacity="0.65"/>
  <text x="201.0" y="284.0" text-anchor="middle" class="node-type">BRIDGE</text>
  <text x="201.0" y="304.0" text-anchor="middle" class="node-title">topicTransNode</text>
  <rect x="430.0" y="270.0" width="188.0" height="56.0" rx="10.0" fill="#e5e8df" stroke="#7b8b5c" stroke-width="1.8"/>
  <text x="524.0" y="288.0" text-anchor="middle" class="node-type">SENSOR</text>
  <text x="524.0" y="304.0" text-anchor="middle" class="node-title">ScepterROS Camera</text>
  <rect x="774.0" y="270.0" width="196.0" height="56.0" rx="10.0" fill="#efe8de" stroke="#d0c3b3" stroke-width="1.8"/>
  <text x="872.0" y="288.0" text-anchor="middle" class="node-type">OPS</text>
  <text x="872.0" y="304.0" text-anchor="middle" class="node-title">system_log_mux.py</text>
  <rect x="78.0" y="432.0" width="268.0" height="82.0" rx="10.0" fill="#c8e4db" stroke="#8c6f5a" stroke-width="2.0"/>
  <rect x="84.0" y="438.0" width="256.0" height="70.0" rx="7.0" fill="none" stroke="#8c6f5a" stroke-width="1.2" opacity="0.65"/>
  <text x="212.0" y="450.0" text-anchor="middle" class="node-type">ORCHESTRATOR</text>
  <text x="212.0" y="479.0" text-anchor="middle" class="node-title">suoquNode</text>
  <text x="212.0" y="501.0" text-anchor="middle" class="node-sub">索驱主控 / 规划 / pseudo_slam / 全局执行</text>
  <rect x="432.0" y="432.0" width="252.0" height="82.0" rx="10.0" fill="#e9f1fb" stroke="#8c6f5a" stroke-width="2.0"/>
  <rect x="438.0" y="438.0" width="240.0" height="70.0" rx="7.0" fill="none" stroke="#8c6f5a" stroke-width="1.2" opacity="0.65"/>
  <text x="558.0" y="450.0" text-anchor="middle" class="node-type">VISION</text>
  <text x="558.0" y="479.0" text-anchor="middle" class="node-title">pointAI.py</text>
  <text x="558.0" y="501.0" text-anchor="middle" class="node-sub">主视觉识别 / ProcessImage / 调试图像</text>
  <rect x="836.0" y="432.0" width="228.0" height="82.0" rx="10.0" fill="#f7ecda" stroke="#d97757" stroke-width="2.0"/>
  <rect x="842.0" y="438.0" width="216.0" height="70.0" rx="7.0" fill="none" stroke="#d97757" stroke-width="1.2" opacity="0.65"/>
  <text x="950.0" y="450.0" text-anchor="middle" class="node-type">ACTUATOR</text>
  <text x="950.0" y="479.0" text-anchor="middle" class="node-title">moduanNode</text>
  <text x="950.0" y="501.0" text-anchor="middle" class="node-sub">末端线模 / 绑扎枪 / 预计算执行</text>
  <rect x="100.0" y="620.0" width="244.0" height="58.0" rx="10.0" fill="#efe8de" stroke="#d0c3b3" stroke-width="1.8"/>
  <text x="222.0" y="638.0" text-anchor="middle" class="node-type">TF</text>
  <text x="222.0" y="655.0" text-anchor="middle" class="node-title">stable_point_tf_broadcaster.py</text>
  <rect x="450.0" y="620.0" width="228.0" height="58.0" rx="10.0" fill="#efe8de" stroke="#d0c3b3" stroke-width="1.8"/>
  <text x="564.0" y="638.0" text-anchor="middle" class="node-type">TF</text>
  <text x="564.0" y="655.0" text-anchor="middle" class="node-title">gripper_tf_broadcaster.py</text>
  <rect x="812.0" y="620.0" width="234.0" height="58.0" rx="10.0" fill="#e9f1fb" stroke="#8c6f5a" stroke-width="1.8"/>
  <text x="929.0" y="638.0" text-anchor="middle" class="node-type">VISUALIZATION</text>
  <text x="929.0" y="655.0" text-anchor="middle" class="node-title">Web / RViz / Marker Overlay</text>
  <path d="M 70.0 766.0 L 216.16 766.0 L 232.0 781.84 L 232.0 838.0 L 70.0 838.0 Z" fill="#fffaf3" stroke="#d0b893" stroke-width="2.0"/>
  <path d="M 216.16 766.0 L 216.16 781.84 L 232.0 781.84" fill="none" stroke="#d0b893" stroke-width="2.0"/>
  <line x1="88.0" y1="792.0" x2="204.0" y2="792.0" stroke="#c4b5fd" stroke-width="1.2"/>
  <line x1="88.0" y1="806.0" x2="204.0" y2="806.0" stroke="#c4b5fd" stroke-width="1.2"/>
  <line x1="88.0" y1="820.0" x2="204.0" y2="820.0" stroke="#c4b5fd" stroke-width="1.2"/>
  <line x1="88.0" y1="834.0" x2="204.0" y2="834.0" stroke="#c4b5fd" stroke-width="1.2"/>
  <text x="151.0" y="864.0" text-anchor="middle" class="node-title">path_points.json</text>
  <path d="M 304.0 766.0 L 474.16 766.0 L 490.0 781.84 L 490.0 838.0 L 304.0 838.0 Z" fill="#fffaf3" stroke="#7b8b5c" stroke-width="2.0"/>
  <path d="M 474.16 766.0 L 474.16 781.84 L 490.0 781.84" fill="none" stroke="#7b8b5c" stroke-width="2.0"/>
  <line x1="322.0" y1="792.0" x2="462.0" y2="792.0" stroke="#c4b5fd" stroke-width="1.2"/>
  <line x1="322.0" y1="806.0" x2="462.0" y2="806.0" stroke="#c4b5fd" stroke-width="1.2"/>
  <line x1="322.0" y1="820.0" x2="462.0" y2="820.0" stroke="#c4b5fd" stroke-width="1.2"/>
  <line x1="322.0" y1="834.0" x2="462.0" y2="834.0" stroke="#c4b5fd" stroke-width="1.2"/>
  <text x="397.0" y="864.0" text-anchor="middle" class="node-title">pseudo_slam_points.json</text>
  <path d="M 560.0 766.0 L 762.16 766.0 L 778.0 781.84 L 778.0 838.0 L 560.0 838.0 Z" fill="#fffaf3" stroke="#d97757" stroke-width="2.0"/>
  <path d="M 762.16 766.0 L 762.16 781.84 L 778.0 781.84" fill="none" stroke="#d97757" stroke-width="2.0"/>
  <line x1="578.0" y1="792.0" x2="750.0" y2="792.0" stroke="#c4b5fd" stroke-width="1.2"/>
  <line x1="578.0" y1="806.0" x2="750.0" y2="806.0" stroke="#c4b5fd" stroke-width="1.2"/>
  <line x1="578.0" y1="820.0" x2="750.0" y2="820.0" stroke="#c4b5fd" stroke-width="1.2"/>
  <line x1="578.0" y1="834.0" x2="750.0" y2="834.0" stroke="#c4b5fd" stroke-width="1.2"/>
  <text x="669.0" y="864.0" text-anchor="middle" class="node-title">pseudo_slam_bind_path.json</text>
  <path d="M 848.0 766.0 L 1018.16 766.0 L 1034.0 781.84 L 1034.0 838.0 L 848.0 838.0 Z" fill="#fffaf3" stroke="#8c6f5a" stroke-width="2.0"/>
  <path d="M 1018.16 766.0 L 1018.16 781.84 L 1034.0 781.84" fill="none" stroke="#8c6f5a" stroke-width="2.0"/>
  <line x1="866.0" y1="792.0" x2="1006.0" y2="792.0" stroke="#c4b5fd" stroke-width="1.2"/>
  <line x1="866.0" y1="806.0" x2="1006.0" y2="806.0" stroke="#c4b5fd" stroke-width="1.2"/>
  <line x1="866.0" y1="820.0" x2="1006.0" y2="820.0" stroke="#c4b5fd" stroke-width="1.2"/>
  <line x1="866.0" y1="834.0" x2="1006.0" y2="834.0" stroke="#c4b5fd" stroke-width="1.2"/>
  <text x="941.0" y="864.0" text-anchor="middle" class="node-title">bind_execution_memory.json</text>
  <rect x="235.0" y="149.0" width="168" height="20" rx="6" fill="#f8f6f3" opacity="0.96"/>
  <text x="319.0" y="163.0" text-anchor="middle" class="arrow-label">topic / service bridge</text>
  <rect x="157.5" y="351.0" width="98" height="20" rx="6" fill="#f8f6f3" opacity="0.96"/>
  <text x="206.5" y="365.0" text-anchor="middle" class="arrow-label">/web/cabin/*</text>
  <rect x="323.5" y="376.0" width="147" height="20" rx="6" fill="#f8f6f3" opacity="0.96"/>
  <text x="397.0" y="390.0" text-anchor="middle" class="arrow-label">debug process_image</text>
  <rect x="564.5" y="364.0" width="105" height="20" rx="6" fill="#f8f6f3" opacity="0.96"/>
  <text x="617.0" y="378.0" text-anchor="middle" class="arrow-label">/web/moduan/*</text>
  <rect x="450.0" y="365.0" width="182" height="20" rx="6" fill="#f8f6f3" opacity="0.96"/>
  <text x="541.0" y="379.0" text-anchor="middle" class="arrow-label">RGB / depth / worldCoord</text>
  <rect x="855.0" y="459.0" width="91" height="20" rx="6" fill="#f8f6f3" opacity="0.96"/>
  <text x="900.5" y="473.0" text-anchor="middle" class="arrow-label">system logs</text>
  <rect x="326.0" y="459.0" width="126" height="20" rx="6" fill="#f8f6f3" opacity="0.96"/>
  <text x="389.0" y="473.0" text-anchor="middle" class="arrow-label">ProcessImage.srv</text>
  <rect x="517.5" y="394.0" width="147" height="20" rx="6" fill="#f8f6f3" opacity="0.96"/>
  <text x="591.0" y="408.0" text-anchor="middle" class="arrow-label">sg_precomputed / sg</text>
  <rect x="322.5" y="518.0" width="133" height="20" rx="6" fill="#f8f6f3" opacity="0.96"/>
  <text x="389.0" y="532.0" text-anchor="middle" class="arrow-label">/coordinate_point</text>
  <rect x="703.0" y="619.0" width="84" height="20" rx="6" fill="#f8f6f3" opacity="0.96"/>
  <text x="745.0" y="633.0" text-anchor="middle" class="arrow-label">gripper TF</text>
  <rect x="518.5" y="566.0" width="119" height="20" rx="6" fill="#f8f6f3" opacity="0.96"/>
  <text x="578.0" y="580.0" text-anchor="middle" class="arrow-label">stable point TF</text>
  <rect x="483.5" y="692.0" width="175" height="20" rx="6" fill="#f8f6f3" opacity="0.96"/>
  <text x="571.0" y="706.0" text-anchor="middle" class="arrow-label">markers / area_progress</text>
  <rect x="130.5" y="541.0" width="91" height="20" rx="6" fill="#f8f6f3" opacity="0.96"/>
  <text x="176.0" y="555.0" text-anchor="middle" class="arrow-label">plan result</text>
  <rect x="352.5" y="654.0" width="91" height="20" rx="6" fill="#f8f6f3" opacity="0.96"/>
  <text x="398.0" y="668.0" text-anchor="middle" class="arrow-label">scan points</text>
  <rect x="422.0" y="546.0" width="84" height="20" rx="6" fill="#f8f6f3" opacity="0.96"/>
  <text x="464.0" y="560.0" text-anchor="middle" class="arrow-label">bind route</text>
  <rect x="559.0" y="568.0" width="126" height="20" rx="6" fill="#f8f6f3" opacity="0.96"/>
  <text x="622.0" y="582.0" text-anchor="middle" class="arrow-label">execution memory</text>
  <rect x="920.0" y="78.0" width="156" height="112" rx="10" fill="#fffaf3" opacity="0.88"/>
  <line x1="930.0" y1="92.0" x2="960.0" y2="92.0" stroke="#d97757" stroke-width="2.0" marker-end="url(#arrowA)"/>
  <text x="970.0" y="96.0" class="legend">控制与服务调用</text>
  <line x1="930.0" y1="114.0" x2="960.0" y2="114.0" stroke="#8c6f5a" stroke-width="2.0" marker-end="url(#arrowC)"/>
  <text x="970.0" y="118.0" class="legend">图像 / 识别请求路径</text>
  <line x1="930.0" y1="136.0" x2="960.0" y2="136.0" stroke="#7b8b5c" stroke-width="2.0" marker-end="url(#arrowB)"/>
  <text x="970.0" y="140.0" class="legend">文件落盘 / TF 输出</text>
  <line x1="930.0" y1="158.0" x2="960.0" y2="158.0" stroke="#d97757" stroke-width="2.0" marker-end="url(#arrowA)"/>
  <text x="970.0" y="162.0" class="legend">可视化与日志回传</text>
</svg>